<svg aria-hidden="true" style="width:0;height:0;position:absolute;overflow:hidden" xmlns="http://www.w3.org/2000/svg"><defs><symbol id="arrow-hero"><path d="M40.707 8.707a1 1 0 0 0 0-1.414L34.343.929a1 1 0 1 0-1.414 1.414L38.586 8l-5.657 5.657a1 1 0 0 0 1.414 1.414l6.364-6.364ZM0 9h40V7H0v2Z" fill="#FCFCFC"/><symbol id="vector-btn"><path d="m1 1 4.95 4L1 9" stroke-width="2" stroke-linecap="round" stroke-linejoin="round"/><symbol id="icon-arrow-focus" viewBox="0 0 32 32"><path d="M31.422 16.652a.92.92 0 0 0 0-1.304l-5.874-5.875a.923.923 0 1 0-1.306 1.306l5.223 5.222-5.222 5.222a.923.923 0 1 0 1.306 1.306l5.874-5.874zM0 16.923h30.769v-1.846H0v1.846z"/></symbol><symbol id="icon-arrow-hero-default" viewBox="0 0 32 32"><path fill="#fcfcfc" style="fill:var(--color1,#fcfcfc)" d="M31.771 16.552a.778.778 0 0 0 0-1.104l-4.967-4.967a.78.78 0 1 0-1.103 1.103l4.415 4.415-4.415 4.415a.78.78 0 0 0 1.103 1.103l4.967-4.967zM0 16.78h31.22v-1.561H0v1.561z"/></symbol><symbol id="icon-arrow-hover" viewBox="0 0 32 32"><path d="M31.816 16.444a.628.628 0 0 0 0-.888l-3.993-3.993a.626.626 0 1 0-.887.886l3.549 3.55-3.55 3.55a.627.627 0 0 0 .887.887l3.993-3.993zM0 16.627h31.373v-1.255H0v1.255z"/></symbol><symbol id="icon-arrow-products-tab-and-mob" viewBox="0 0 32 32"><path d="M31.771 16.552a.778.778 0 0 0 0-1.104l-4.967-4.967a.78.78 0 1 0-1.103 1.103l4.415 4.415-4.415 4.415a.78.78 0 0 0 1.103 1.103l4.967-4.967zM0 16.78h31.22v-1.561H0v1.561z"/></symbol><symbol id="icon-arrow-products" viewBox="0 0 32 32"><path d="M31.483 16.454c.138-.138.223-.328.223-.539s-.085-.401-.223-.539l-4.849-4.849a.762.762 0 1 0-1.078 1.078l4.309 4.309-4.31 4.31a.762.762 0 1 0 1.078 1.078l4.849-4.849zM.29 16.677h30.655v-1.524H.29v1.524z"/></symbol><symbol id="icon-btn-arrow" viewBox="0 0 32 32"><path stroke-linejoin="round" stroke-linecap="round" stroke-width="6.4" d="M8 3.2 23.84 16 8 28.8"/></symbol><symbol id="icon-cow-in-yellow-circle" viewBox="0 0 32 32"><path fill="#f8d24e" style="fill:var(--color2,#f8d24e)" d="M16 0c8.837 0 16 7.163 16 16s-7.163 16-16 16S0 24.837 0 16 7.163 0 16 0z"/><path fill="#131313" style="fill:var(--color3,#131313)" d="M8.922 4.618c-.188.163-.725 1.283-.918 1.894-.229.757-.307 1.325-.276 2.109.042 1.12.323 1.97.943 2.857.162.233.292.433.292.449 0 .011-.099.022-.224.022-.538 0-1.544.179-2.315.411-1.225.369-1.944 1.012-1.944 1.732 0 .255.229.687.474.909.474.428 1.512.834 2.627 1.028.386.07 1.533.189 1.788.195.047 0 .063.25.063 1.066 0 .703.026 1.25.078 1.585.188 1.201.771 2.472 1.542 3.371l.266.308-.177.287c-.26.406-.36.714-.39 1.174-.079 1.104.609 2.083 1.939 2.771 2.532 1.315 6.468.801 7.944-1.039.719-.899.803-1.926.234-2.857l-.177-.287.318-.384a6.655 6.655 0 0 0 1.272-2.332c.244-.768.339-1.51.339-2.684 0-.535.015-.979.042-.979a22.66 22.66 0 0 0 1.757-.195c1.121-.195 2.138-.595 2.627-1.028.245-.222.474-.655.474-.909 0-.801-.813-1.45-2.325-1.84-.495-.13-1.428-.287-1.882-.314l-.214-.017.235-.324c.292-.395.657-1.163.797-1.667.396-1.455.151-3.149-.699-4.767-.354-.671-.599-.828-.886-.563-.109.104-.156.244-.26.753-.323 1.618-.923 2.9-1.798 3.846l-.386.422h-8.246l-.344-.373c-.854-.941-1.475-2.272-1.798-3.896-.104-.509-.151-.649-.26-.752-.172-.157-.339-.152-.531.016zm.666 3.209a8.636 8.636 0 0 0 1.027 1.699l.323.417-.339.254c-.318.243-.615.59-.845.986l-.099.178-.25-.34c-.855-1.18-1.069-2.624-.615-4.124.219-.724.214-.719.412-.092.094.303.271.763.386 1.023zm13.568-1.142c.189.524.298 1.129.298 1.76v.067-.003c0 .984-.26 1.818-.808 2.564l-.245.335-.182-.308a3.267 3.267 0 0 0-.903-.994l-.01-.007a1.26 1.26 0 0 1-.25-.195c0-.016.099-.141.224-.276.579-.644 1.199-1.802 1.507-2.797.093-.308.188-.563.203-.563s.094.19.166.417zm-2.663 3.956c.579.243 1.131.941 1.22 1.531.047.325.156.531.297.563.063.01.495.049.959.081 1.647.109 2.945.46 3.498.941.255.227.229.417-.078.65-.615.465-1.944.817-3.3.877-.897.038-1.084.064-1.204.189-.089.092-.099.189-.099 1.169 0 1.326-.068 2.089-.235 2.705-.234.838-.698 1.732-1.24 2.365l-.224.26-.464-.276a5.646 5.646 0 0 0-1.681-.69l-.039-.008c-1.976-.471-4.16-.184-5.629.741l-.339.216-.214-.254a7.865 7.865 0 0 1-.933-1.482c-.401-.931-.521-1.688-.521-3.355 0-1.618.083-1.499-1.116-1.564-1.533-.081-2.701-.357-3.436-.822-.542-.346-.453-.655.303-1.018.724-.352 1.72-.563 3.101-.649 1.074-.07 1.1-.086 1.199-.606.146-.785.724-1.434 1.455-1.64.182-.054 1.204-.065 4.332-.06l4.092.011.297.125zm-2.929 11.2c1.277.314 2.231.898 2.643 1.623.099.168.141.34.161.606.021.33.006.411-.12.682-.579 1.229-2.705 2.04-4.868 1.856-2.601-.216-4.311-1.667-3.638-3.09.365-.768 1.6-1.504 2.903-1.72.214-.032.428-.07.469-.081s.511-.011 1.043 0c.724.017 1.073.049 1.407.125z"/><path fill="#131313" style="fill:var(--color3,#131313)" d="M12.393 13.351c-.323.109-.542.25-.834.541-.256.243-.276.53-.063.703.198.162.386.141.625-.07.303-.265.538-.374.829-.374.292-.005.516.098.829.374.239.211.427.232.625.07.104-.087.136-.157.136-.32 0-.167-.036-.243-.219-.427-.516-.519-1.283-.719-1.929-.498zm6.077-.006c-.333.125-.761.406-.932.617-.167.206-.173.438 0 .612.172.184.38.173.63-.033.615-.509 1.074-.525 1.642-.054.146.125.312.222.365.222.255 0 .464-.227.464-.498 0-.173-.433-.573-.824-.763-.433-.211-.948-.249-1.345-.102zm-5.321 10.016c-.151.146-.204.356-.125.525.058.135.146.189.506.287.162.043.23.097.287.232.073.179.078.179.48.195l.401.017v-.152c-.005-.216-.125-.53-.282-.746-.182-.25-.5-.412-.86-.444-.245-.021-.307-.011-.406.087zm4.978-.038c-.26.07-.636.422-.74.698a1.837 1.837 0 0 0-.099.487v.006c-.01.232.01.287.136.4.307.271.714.06.714-.373 0-.211.156-.357.433-.411.292-.054.396-.173.401-.449 0-.363-.323-.503-.845-.357z"/></symbol><symbol id="icon-cow" viewBox="0 0 32 32"><path d="M6.435.778c-.254.219-.98 1.732-1.24 2.558-.31 1.024-.415 1.792-.374 2.851.056 1.514.437 2.662 1.275 3.861.219.315.395.585.395.607 0 .015-.134.029-.303.029-.726 0-2.086.241-3.128.555-1.655.497-2.627 1.367-2.627 2.34 0 .343.31.928.641 1.228.641.578 2.043 1.126 3.55 1.389.521.095 2.071.256 2.416.264.063 0 .085.336.085 1.44 0 .951.035 1.689.106 2.142.253 1.623 1.042 3.342 2.084 4.555l.36.417-.24.387c-.352.548-.486.965-.528 1.586-.106 1.492.823 2.815 2.621 3.744 3.422 1.776 8.741 1.082 10.735-1.404.972-1.214 1.085-2.603.317-3.861l-.24-.388.43-.519c.803-.965 1.324-1.93 1.718-3.152.331-1.038.458-2.04.458-3.626 0-.724.021-1.323.056-1.323.324-.008 1.881-.176 2.374-.264 1.514-.263 2.889-.804 3.55-1.389.331-.3.641-.885.641-1.228 0-1.083-1.098-1.96-3.142-2.486-.669-.176-1.93-.387-2.543-.424l-.289-.023.317-.438c.394-.534.887-1.571 1.078-2.252.535-1.967.204-4.255-.944-6.441-.48-.905-.811-1.117-1.198-.759-.148.138-.212.329-.352 1.016-.437 2.186-1.247 3.92-2.43 5.199l-.521.571H10.399l-.465-.505c-1.155-1.271-1.994-3.07-2.43-5.264C7.363 1.083 7.3.894 7.152.755 6.919.543 6.694.55 6.434.777zm.901 4.336c.374.819.839 1.586 1.387 2.295l.437.563-.457.344c-.43.329-.831.797-1.142 1.33l-.133.242-.338-.461c-1.155-1.594-1.444-3.546-.831-5.571.296-.98.289-.973.556-.125.127.409.367 1.031.521 1.382zm18.335-1.543c.255.709.403 1.526.403 2.378l-.001.09v-.005c0 1.331-.352 2.456-1.091 3.465l-.331.453-.247-.417a4.425 4.425 0 0 0-1.22-1.344l-.013-.009c-.19-.124-.337-.248-.337-.263 0-.022.133-.19.303-.373.782-.87 1.62-2.435 2.036-3.779.126-.418.253-.761.274-.761s.127.256.225.562zm-3.599 5.345c.782.329 1.528 1.271 1.648 2.069.063.439.211.717.401.761.085.015.669.066 1.296.109 2.225.147 3.979.622 4.726 1.272.345.307.31.563-.105.878-.831.629-2.627 1.104-4.459 1.185-1.212.051-1.465.086-1.628.255-.119.125-.133.256-.133 1.579 0 1.792-.092 2.823-.317 3.656-.317 1.133-.944 2.34-1.676 3.196l-.303.351-.627-.373a7.624 7.624 0 0 0-2.272-.933l-.053-.01c-2.67-.636-5.622-.248-7.607 1.002l-.458.292-.289-.343c-.394-.461-1.014-1.448-1.261-2.003-.542-1.258-.704-2.282-.704-4.534 0-2.186.112-2.026-1.507-2.113-2.071-.11-3.65-.483-4.643-1.111-.733-.468-.612-.885.409-1.375.979-.476 2.324-.76 4.191-.877 1.451-.095 1.486-.117 1.62-.819.197-1.06.979-1.937 1.966-2.216.246-.073 1.627-.087 5.853-.08l5.53.014.401.169zm-3.959 15.135c1.726.424 3.015 1.213 3.572 2.193.134.227.19.461.218.819.029.446.008.555-.162.921-.782 1.661-3.656 2.756-6.579 2.508-3.515-.292-5.826-2.252-4.917-4.175.493-1.038 2.162-2.032 3.923-2.326.289-.043.578-.095.634-.11s.691-.015 1.41 0c.978.023 1.45.066 1.901.169z"/><path d="M11.126 12.579c-.437.147-.733.337-1.127.732-.346.329-.374.716-.085.95.268.219.521.19.845-.095.409-.359.726-.505 1.121-.505.394-.007.697.132 1.119.505.324.285.578.314.846.095.141-.118.183-.212.183-.432 0-.226-.049-.329-.297-.577-.697-.702-1.732-.972-2.606-.673zm8.212-.007c-.45.168-1.028.548-1.26.833-.226.278-.233.592 0 .827.232.248.514.233.852-.044.831-.688 1.451-.709 2.219-.073.197.169.422.3.493.3.345 0 .627-.307.627-.673 0-.233-.585-.775-1.113-1.031-.585-.285-1.282-.336-1.817-.138zm-7.191 13.534c-.204.197-.275.483-.169.709.078.183.197.256.683.387.219.058.31.131.387.314.099.242.106.242.649.264l.542.022v-.205c-.007-.292-.169-.716-.381-1.008-.246-.337-.676-.556-1.162-.6-.331-.029-.415-.015-.549.118zm6.727-.052c-.352.095-.859.571-1 .943-.07.196-.118.423-.134.658v.008c-.014.314.014.387.183.541.415.365.965.08.965-.505 0-.285.211-.483.585-.555.394-.073.535-.233.542-.607 0-.489-.437-.68-1.142-.483z"/></symbol><symbol id="icon-dots" viewBox="0 0 32 32"><path fill="#84a178" style="fill:var(--color4,#84a178)" d="M5.333 16a2.667 2.667 0 1 1-5.334 0 2.667 2.667 0 0 1 5.334 0z"/><path fill="#d9d9d9" style="fill:var(--color5,#d9d9d9)" d="M18.667 16a2.667 2.667 0 1 1-5.334 0 2.667 2.667 0 0 1 5.334 0zM32 16a2.667 2.667 0 1 1-5.334 0A2.667 2.667 0 0 1 32 16z"/></symbol><symbol id="icon-dots-tab" viewBox="0 0 32 32"><path fill="#d9d9d9" style="fill:var(--color5,#d9d9d9)" d="M18.584 16a2.63 2.63 0 1 1-5.26 0 2.63 2.63 0 0 1 5.26 0z"/><path fill="#84a178" style="fill:var(--color4,#84a178)" d="M5.26 16A2.63 2.63 0 1 1 0 16a2.63 2.63 0 0 1 5.26 0z"/><path fill="#d9d9d9" style="fill:var(--color5,#d9d9d9)" d="M31.735 16a2.63 2.63 0 1 1-5.26 0 2.63 2.63 0 0 1 5.26 0z"/></symbol><symbol id="icon-facebook-focus" viewBox="0 0 32 32"><path fill="#f8d24e" style="fill:var(--color2,#f8d24e)" d="M16 32c8.837 0 16-7.163 16-16S24.837 0 16 0 0 7.163 0 16s7.163 16 16 16z"/><path fill="#fcfcfc" style="fill:var(--color1,#fcfcfc)" d="M20.445 15.982h-2.609V25.6h-3.955v-9.618H12v-3.38h1.881v-2.188c0-1.563.739-4.014 3.99-4.014l2.929.012v3.282h-2.126c-.348 0-.838.174-.838.921v1.989h2.955l-.346 3.377z"/></symbol><symbol id="icon-facebook-hover" viewBox="0 0 32 32"><path fill="#f8d24e" style="fill:var(--color2,#f8d24e)" d="M16 32c8.837 0 16-7.163 16-16S24.837 0 16 0 0 7.163 0 16s7.163 16 16 16z"/><path fill="#fcfcfc" style="fill:var(--color1,#fcfcfc)" d="M20.446 15.981h-2.61V25.6H13.88v-9.62H12V12.6h1.88v-2.187c0-1.565.74-4.014 3.99-4.014l2.93.012v3.281h-2.125c-.35 0-.84.176-.84.922v1.99h2.956l-.345 3.376z"/></symbol><symbol id="icon-facebook-mob" viewBox="0 0 32 32"><path fill="#f8d24e" style="fill:var(--color2,#f8d24e)" d="M16 31.949c8.569 0 15.515-6.948 15.515-15.519S24.569.912 16 .912.485 7.859.485 16.43c0 8.571 6.946 15.519 15.515 15.519z"/><path fill="#84a178" style="fill:var(--color4,#84a178)" d="M20.311 16.412H17.78v9.329h-3.836v-9.328h-1.823v-3.28h1.823v-2.122c0-1.517.718-3.892 3.869-3.892l2.841.012v3.183h-2.061c-.339 0-.815.17-.815.894v1.93h2.866l-.335 3.276z"/></symbol><symbol id="icon-facebook"><svg width="11" height="22"><path d="M9.723 10.98H6.95V21.2H2.748V10.98H.75V7.39h1.998V5.065C2.748 3.403 3.533.8 6.988.8L10.1.813V4.3H7.842c-.37 0-.892.187-.892.98v2.113h3.14l-.367 3.588Z"/></svg></symbol><symbol id="icon-github-focus" viewBox="0 0 32 32"><path fill="#f8d24e" style="fill:var(--color2,#f8d24e)" d="M31.35 15.962c0 8.457-6.856 15.313-15.313 15.313S.724 24.419.724 15.962 7.58.649 16.037.649 31.35 7.505 31.35 15.962z"/><path fill="#fcfcfc" style="fill:var(--color1,#fcfcfc)" d="M15.602 8.165c-4.523 0-8.235 3.712-8.235 8.235 0 3.86 2.708 7.366 6.305 8.235V21.91c-.356.078-.684.08-1.047-.026-.486-.144-.882-.468-1.176-.962-.186-.315-.518-.658-.864-.632l-.085-.962c.748-.064 1.395.456 1.779 1.101.17.287.367.456.619.53.243.072.505.038.81-.07.077-.61.356-.838.568-1.16v-.001c-2.146-.32-3-1.458-3.339-2.356-.45-1.193-.208-2.682.586-3.624.016-.018.043-.066.032-.1-.364-1.102.08-2.012.096-2.109.421.124.49-.126 1.828.688l.232.139c.096.058.066.024.162.017a6.785 6.785 0 0 1 1.723-.243h.005c.586.008 1.17.092 1.752.25l.075.008c-.006-.002.021-.006.066-.032 1.672-1.013 1.612-.682 2.06-.827.016.096.454 1.022.094 2.11-.049.15 1.45 1.522.619 3.723-.34.899-1.194 2.037-3.339 2.357.274.419.605.642.603 1.507v3.401c3.597-.869 6.306-4.376 6.306-8.235 0-4.523-3.712-8.235-8.235-8.235z"/></symbol><symbol id="icon-github-hover" viewBox="0 0 32 32"><path fill="#f8d24e" style="fill:var(--color2,#f8d24e)" d="M32 16c0 8.837-7.163 16-16 16S0 24.837 0 16 7.163 0 16 0s16 7.163 16 16z"/><path fill="#fcfcfc" style="fill:var(--color1,#fcfcfc)" d="M16.002 6.588c-5.17 0-9.412 4.242-9.412 9.412 0 4.411 3.095 8.418 7.206 9.412v-3.114a2.307 2.307 0 0 1-1.197-.03c-.556-.165-1.008-.535-1.344-1.1-.214-.361-.593-.752-.988-.723l-.097-1.1c.855-.072 1.595.522 2.034 1.26.195.327.42.52.707.605.279.082.578.042.926-.08.088-.698.407-.96.649-1.327-2.452-.366-3.429-1.667-3.817-2.693-.513-1.363-.238-3.066.671-4.142.018-.021.05-.076.037-.114-.417-1.259.091-2.3.11-2.41.48.142.559-.143 2.088.786l.265.159c.11.066.076.028.186.02a7.785 7.785 0 0 1 1.97-.278h.006a7.986 7.986 0 0 1 2.058.299l-.056-.014.085.008c-.007 0 .024-.005.075-.036 1.911-1.157 1.842-.779 2.355-.945.018.11.52 1.168.107 2.41-.056.172 1.657 1.74.708 4.256-.388 1.027-1.365 2.328-3.816 2.693v.001c.314.479.691.734.69 1.722v3.887c4.11-.994 7.205-5 7.205-9.412 0-5.17-4.242-9.412-9.411-9.412z"/></symbol><symbol id="icon-github-mob" viewBox="0 0 32 32"><path fill="#f8d24e" style="fill:var(--color2,#f8d24e)" d="M31.515 16.43c0 8.571-6.946 15.519-15.515 15.519S.485 25.001.485 16.43 7.431.911 16 .911 31.515 7.859 31.515 16.43z"/><path fill="#84a178" style="fill:var(--color4,#84a178)" d="M16 7.301c-5.013 0-9.127 4.114-9.127 9.129 0 4.278 3.001 8.165 6.988 9.129v-3.02a2.251 2.251 0 0 1-1.176-.033l.016.004c-.539-.16-.977-.52-1.303-1.067-.207-.351-.574-.73-.958-.702l-.094-1.067c.829-.07 1.547.506 1.972 1.222.189.318.407.504.686.587.271.079.56.042.898-.078.085-.677.395-.931.629-1.287-2.378-.355-3.325-1.616-3.7-2.612-.498-1.322-.232-2.973.65-4.017.017-.019.049-.074.036-.111-.403-1.221.088-2.23.107-2.337.465.138.542-.139 2.025.762l.257.154c.107.064.074.027.18.019a7.557 7.557 0 0 1 1.91-.27h.006a7.78 7.78 0 0 1 1.996.29l-.055-.013.082.008c-.007 0 .023-.005.073-.035 1.853-1.122 1.786-.755 2.284-.917.017.108.504 1.135.104 2.339-.053.166 1.607 1.687.687 4.128-.376.996-1.324 2.257-3.7 2.612.305.465.67.712.669 1.67v3.77c3.985-.963 6.987-4.85 6.987-9.129 0-5.013-4.113-9.129-9.126-9.129z"/></symbol><symbol id="icon-github" viewBox="0 0 20 20"><svg width="20" height="20"><path d="M10 0C4.507 0 0 4.507 0 10c0 4.687 3.289 8.945 7.656 10v-3.308a2.446 2.446 0 0 1-1.271-.033c-.591-.174-1.071-.568-1.428-1.168-.227-.383-.63-.8-1.05-.769l-.103-1.167c.909-.078 1.694.554 2.16 1.337.208.349.447.553.753.643.295.088.613.046.983-.085.093-.741.433-1.018.69-1.41-2.605-.388-3.643-1.77-4.055-2.86-.546-1.449-.253-3.258.712-4.402.019-.022.053-.08.04-.12-.443-1.338.096-2.444.116-2.561.511.15.594-.152 2.22.835l.28.169c.118.07.08.03.198.02A8.487 8.487 0 0 1 10 4.828c.71.009 1.42.11 2.127.302l.091.01c-.008-.002.025-.006.08-.039 2.03-1.23 1.957-.828 2.502-1.005.02.118.551 1.242.114 2.562-.06.182 1.76 1.848.751 4.522-.412 1.09-1.45 2.473-4.054 2.861.334.51.735.78.733 1.83V20C16.71 18.945 20 14.687 20 10c0-5.493-4.507-10-10-10Z"/></svg></symbol><symbol id="icon-ice-cream" viewBox="0 0 32 32"><path fill="#f8d24e" style="fill:var(--color2,#f8d24e)" d="M23.673 14.685c1.642-4.393-1.758-6.797-4.012-8.377-.431-.323-.862-.625-1.211-.901a4.207 4.207 0 0 1-1.315-1.943l-.008-.03A4.154 4.154 0 0 1 17.1 1.04l-.007.029a.449.449 0 0 0-.133-.457.465.465 0 0 0-.477-.093l.003-.001a7.656 7.656 0 0 0-2.102 1.238l.012-.01a4.941 4.941 0 0 0-1.411 1.686l-.013.028a4.78 4.78 0 0 0-.513 2.155v.001a5.788 5.788 0 0 0-1.105 1.135l-.011.016a4.15 4.15 0 0 0-.823 2.707v-.01a5.347 5.347 0 0 0-1.482 2.258l-.011.038a5.165 5.165 0 0 0-.262 1.641c0 .383.041.756.118 1.116l-.006-.035a1.45 1.45 0 0 0-.605.705 1.396 1.396 0 0 0-.102.531c0 .14.02.275.058.402l-.003-.01c.087.305.273.573.53.762s.569.292.89.29h.03v2.497c0 .254.103.497.284.677a.98.98 0 0 0 .686.28h.754l1.23 10.493c.025.234.137.45.315.606s.407.243.646.243h5.111c.239-.001.469-.087.647-.244s.291-.372.319-.606l1.228-10.493h.754a.981.981 0 0 0 .686-.28.945.945 0 0 0 .284-.676v-2.498h.032c.404 0 .77-.162 1.037-.424.275-.271.43-.64.43-1.025v-.016c0-.399-.165-.759-.431-1.016l-.013.004zm-11.062-7.97c.621 2.298 3.017 3.203 5.202 4.01a.47.47 0 0 0 .572-.06.462.462 0 0 0 .144-.335l-.001-.033v.001a.455.455 0 0 0-.193-.342l-.001-.001a.455.455 0 0 0-.186-.078h-.003c-2.353-.879-4.573-1.699-4.741-4.049a3.873 3.873 0 0 1 .368-1.902l-.01.023a3.962 3.962 0 0 1 1.205-1.482l.01-.007a7.07 7.07 0 0 1 1.051-.714 5.444 5.444 0 0 0 .001.904l-.001-.02a4.95 4.95 0 0 0 .562 1.957l-.013-.027a5.096 5.096 0 0 0 1.262 1.559l.009.007c.358.302.802.612 1.293.943 1.134.803 2.422 1.699 3.241 2.914.511.718.818 1.614.818 2.581 0 .625-.128 1.22-.359 1.76l.011-.029h-1.905c-3.926 0-8.438-1.07-9.33-4.07a3.399 3.399 0 0 1 .01-1.91l-.006.024a3.45 3.45 0 0 1 1.01-1.598l.003-.003-.022-.021zm3.534 14.482 1.439 1.419-1.44 1.419-1.439-1.427 1.439-1.41zm3.301 3.726-1.19 1.173-1.439-1.419 1.44-1.415 1.249 1.227-.06.434zm-3.301 3.254-1.44-1.419 1.44-1.419 1.439 1.419-1.44 1.419zm-.659-3.492-1.44 1.419-1.198-1.181-.051-.425 1.25-1.227 1.439 1.415zm-2.103 2.073-.289.285-.073-.646.362.361zm-.152 1.453.815-.803 1.582 1.571a.79.79 0 0 0 .03.094h-2.327l-.099-.863zm5.018-.803.814.803-.099.85h-2.392l1.677-1.653zm.947-.366-.289-.285.366-.361-.078.646zm.431-3.712-.72-.722.914-.901-.194 1.623zm-1.383-1.368-1.366-1.342h2.733l-1.366 1.343zm-4.202 0-1.366-1.342h2.732l-1.366 1.343zm4.655 9.074h-5.108a.034.034 0 0 1-.03-.03l-.121-1.02h5.413l-.117 1.02a.034.034 0 0 1-.034.03h-.004zm3.952-14.801h-1.5a.474.474 0 0 0-.361.119.462.462 0 0 0-.154.343c0 .136.059.258.154.342a.47.47 0 0 0 .363.118h-.002.534v2.498a.036.036 0 0 1-.011.022.035.035 0 0 1-.022.008H10.627a.035.035 0 0 1-.022-.008.033.033 0 0 1-.011-.022v-2.497h8.537a.476.476 0 0 0 .303-.15.455.455 0 0 0 0-.623.47.47 0 0 0-.301-.149H9.65a.537.537 0 0 1-.409-.137h.001a.528.528 0 0 1-.174-.388v-.001c0-.154.067-.292.173-.387h.001a.534.534 0 0 1 .411-.136h-.002.978a.48.48 0 0 0 .303-.149.46.46 0 0 0 0-.623.474.474 0 0 0-.301-.15h-.864a4.538 4.538 0 0 1 .065-1.98l-.007.031a4.539 4.539 0 0 1 .886-1.754l-.006.008c.302.926 1.078 2.192 3.017 3.199 1.823.938 4.237 1.419 7.171 1.419h1.724a.538.538 0 0 1 .409.136h-.001a.528.528 0 0 1 .174.388v.001a.534.534 0 0 1-.584.523h.032z"/></symbol><symbol id="icon-logo-desk" viewBox="0 0 32 32"><path fill="#f8d24e" style="fill:var(--color2,#f8d24e)" d="M16.457 17.082c1.415-3.784-1.515-5.855-3.457-7.217-.371-.278-.742-.538-1.044-.776a3.627 3.627 0 0 1-1.133-1.674l-.007-.026a3.48 3.48 0 0 1-.163-1.067c0-.345.049-.679.141-.995l-.006.025a.39.39 0 0 0-.115-.395.402.402 0 0 0-.412-.08l.003-.001c-.69.273-1.285.63-1.811 1.067l.011-.009a4.272 4.272 0 0 0-1.215 1.452l-.011.024a4.115 4.115 0 0 0-.442 1.857v.001a4.977 4.977 0 0 0-.952.978l-.01.014a3.579 3.579 0 0 0-.709 2.332v-.008a4.607 4.607 0 0 0-1.276 1.945l-.009.032a4.55 4.55 0 0 0-.124 2.376l-.005-.03a1.247 1.247 0 0 0-.609 1.065c0 .12.017.237.05.347l-.002-.009c.075.262.235.493.456.657s.49.252.767.25h.026v2.151c0 .219.089.428.245.583s.369.241.591.241h.65l1.058 9.04c.022.201.118.387.271.522s.351.21.556.21h4.404c.206 0 .404-.075.557-.21s.251-.32.275-.522l1.058-9.04h.65a.844.844 0 0 0 .591-.241.817.817 0 0 0 .245-.582v-2.152H15.578c.348 0 .663-.139.894-.365a1.24 1.24 0 0 0 .371-.883v-.014c0-.343-.142-.654-.371-.875l-.011.003zm-9.531-6.866c.535 1.98 2.599 2.759 4.482 3.455a.41.41 0 0 0 .493-.052.4.4 0 0 0 .124-.289l-.001-.028v.001a.393.393 0 0 0-.166-.295l-.001-.001a.402.402 0 0 0-.16-.068h-.003c-2.027-.758-3.939-1.464-4.084-3.488a3.32 3.32 0 0 1 .318-1.639l-.009.02a3.417 3.417 0 0 1 1.038-1.277l.009-.006c.283-.231.586-.438.906-.615a4.491 4.491 0 0 0 .002.779l-.001-.017c.047.615.216 1.181.484 1.686l-.011-.023c.281.531.648.98 1.087 1.343l.007.006c.308.26.691.527 1.114.812.977.692 2.087 1.465 2.792 2.511.441.619.704 1.39.704 2.223 0 .538-.11 1.051-.309 1.517l.01-.025H14.11c-3.382 0-7.27-.922-8.038-3.506a2.94 2.94 0 0 1 .009-1.646l-.005.021a2.968 2.968 0 0 1 .87-1.377l.003-.003-.019-.018zm3.045 12.477 1.24 1.222-1.241 1.222-1.24-1.23 1.24-1.215zm2.844 3.21-1.025 1.01-1.24-1.222 1.241-1.219 1.076 1.057-.052.374zm-2.844 2.803L8.73 27.484l1.241-1.222 1.24 1.222-1.241 1.222zm-.568-3.008L8.162 26.92 7.13 25.902l-.044-.366 1.077-1.057 1.24 1.219zm-1.812 1.786-.249.245-.063-.556.312.311zm-.131 1.251.702-.692 1.363 1.354a.763.763 0 0 0 .026.081H7.546l-.086-.743zm4.323-.691.702.692-.086.732h-2.06l1.444-1.424zm.816-.315-.249-.245.316-.311-.067.556zm.372-3.199-.62-.622.787-.776-.167 1.398zm-1.192-1.178-1.177-1.156h2.354l-1.177 1.157zm-3.62 0-1.177-1.156h2.354l-1.177 1.157zm4.01 7.817h-4.4a.03.03 0 0 1-.026-.025l-.104-.879h4.664l-.1.879a.03.03 0 0 1-.029.026h-.003zm3.405-12.751h-1.292a.406.406 0 0 0-.311.102.392.392 0 0 0 0 .59.403.403 0 0 0 .271.103l.042-.002h-.002.46v2.152a.032.032 0 0 1-.01.019.032.032 0 0 1-.019.007H5.217a.032.032 0 0 1-.019-.007.032.032 0 0 1-.01-.019v-2.152h7.355a.408.408 0 0 0 .261-.129.394.394 0 0 0 0-.537.402.402 0 0 0-.259-.128h-8.17a.467.467 0 0 1-.353-.117.453.453 0 0 1-.15-.335v-.001c0-.133.058-.252.149-.334a.462.462 0 0 1 .31-.119l.044.002h-.002.843a.408.408 0 0 0 .261-.129.394.394 0 0 0 0-.537.408.408 0 0 0-.259-.129h-.744a3.919 3.919 0 0 1 .056-1.707l-.006.027c.15-.579.412-1.083.764-1.511l-.005.007c.26.798.928 1.889 2.599 2.756 1.57.808 3.65 1.222 6.178 1.222h1.485a.462.462 0 0 1 .352.117.453.453 0 0 1 .15.335v.001a.449.449 0 0 1-.149.334.462.462 0 0 1-.31.119l-.044-.002H15.572z"/><path fill="#f8d24e" style="fill:var(--color2,#f8d24e)" d="m18.195 29.152-.293.448.006.004.287-.453zm3.149.152.535-.012-.014-.62-.611.104.09.528zm.036 1.647.136.518.409-.108-.01-.422-.535.012zm-4.132.079.121-.522-.003-.001-.117.523zm-2.04-.911.347-.409h-.001l-.346.409zm-.737-1.673.536.003v-.003h-.536zm.256-1.172-.48-.236v.001l.48.235zm1.642-1.402.19.501.002-.001-.192-.5zm5.262-.136.534.041.035-.452-.44-.109-.129.52zm-.13 1.679-.099.526.587.111.046-.596-.534-.042zm-1.428-.687c-.804 0-1.48.086-1.973.303a1.616 1.616 0 0 0-.651.489 1.253 1.253 0 0 0-.255.76v.015-.001h1.071v-.013c0-.043.014-.083.038-.115a.57.57 0 0 1 .228-.156c.288-.127.783-.212 1.542-.212v-1.072zm-2.879 1.566c0 .551.247 1.006.709 1.307l.585-.897a.433.433 0 0 1-.223-.409h-1.071zm.714 1.31c.438.277 1.015.381 1.663.381v-1.071c-.559 0-.899-.095-1.089-.215l-.574.905zm1.663.381c.635 0 1.256-.051 1.863-.154l-.179-1.056c-.5.088-1.077.139-1.665.139h-.02.001v1.071zm1.237-.67.036 1.648 1.071-.024-.037-1.647-1.071.024zm.436 1.118a7.964 7.964 0 0 1-2.029.244v1.071c.821 0 1.589-.092 2.302-.279l-.273-1.036zm-2.029.244c-.757 0-1.369-.06-1.846-.169l-.241 1.044c.582.134 1.281.197 2.087.197v-1.071zm-1.85-.17c-.512-.114-.881-.236-1.127-.356l-.47.962c.353.172.814.316 1.363.439l.234-1.046zm-1.127-.356a3.264 3.264 0 0 1-.688-.444l.005.004-.693.817c.263.222.561.417.881.574l.026.011.47-.962zm-.684-.441c-.364-.308-.55-.709-.547-1.262l-1.071-.005c-.004.842.301 1.556.927 2.085l.692-.818zm-.547-1.264c0-.36.07-.669.202-.936l-.962-.471c-.211.43-.311.902-.311 1.407h1.071zm.201-.936c.243-.495.673-.88 1.351-1.137l-.38-1.002c-.884.336-1.549.886-1.933 1.666l.961.473zm1.354-1.138c.712-.273 1.507-.414 2.392-.414v-1.071c-.999 0-1.926.159-2.776.485l.384 1zm2.391-.414c.901 0 1.751.1 2.549.298l.258-1.04c-.89-.221-1.826-.33-2.807-.33v1.071zm2.144-.263-.13 1.679 1.068.084.131-1.679-1.068-.083zm.504 1.194a8.343 8.343 0 0 0-1.528-.161v1.071c.377 0 .818.046 1.328.142l.199-1.053zm5.226.855-.003.536.544.003-.005-.544-.536.005zm-.231-.695-.364.393.005.004.359-.397zm-1.334.053.371.386.004-.004-.375-.383zm-.324.632-.529-.087-.101.619.627.003.003-.536zm3.939 2.856.324.427.192-.146.018-.241-.534-.039zm-1.156.429-.115-.523h-.003l.118.523zm-4.017-.146-.182.504.004.001.178-.505zm-.916-.487-.332.42.003.002.003.002.326-.425zm-.611-.769-.48.237.001.002.479-.24zm.627-3.248zm4.896-.581.214-.49-.005-.002-.209.493zm1.229 1.13-.482.234.001.003.48-.237zm.21.937.534.038.001-.019v-.02h-.536zm-.063.863-.002.536.501.002.036-.499-.534-.039zm-4.243-.021.003-.536-.699-.003.178.676.518-.137zm.608.748-.263.466.002.001.261-.468zm3.253-.183v-.536h-.107l-.098.041.206.495zm.282 0 .534.039.043-.575h-.577v.536zm-1.614-1.523c-.004-.387-.094-.803-.406-1.087l-.72.794c-.006-.005.006.001.021.047a.87.87 0 0 1 .033.257l1.071-.011zm-.401-1.082c-.281-.261-.65-.347-1.013-.347v1.071c.208 0 .272.05.284.061l.729-.785zm-1.013-.348c-.399 0-.77.125-1.06.409l.75.766c.059-.058.144-.103.31-.103v-1.072zm-1.056.406a1.63 1.63 0 0 0-.481.923l-.001.009 1.057.174a.568.568 0 0 1 .166-.334l-.742-.773zm.043 1.555 1.889.01.006-1.071-1.889-.011-.006 1.071zm3.619 1.893c-.118.089-.404.213-.948.333l.23 1.046c.565-.125 1.05-.287 1.365-.525l-.647-.854zm-.951.334a6.544 6.544 0 0 1-1.496.175h-.002v1.071c.566 0 1.145-.068 1.735-.202l-.236-1.045zm-1.498.175c-.505 0-.921-.024-1.252-.068l-.143 1.062c.394.053.861.078 1.395.078v-1.071zm-1.252-.069a4.79 4.79 0 0 1-1.004-.247l.034.011-.357 1.01a5.96 5.96 0 0 0 1.184.288l.143-1.062zm-.966-.234a2.82 2.82 0 0 1-.772-.408l-.652.85c.305.234.661.42 1.058.565l.365-1.007zm-.766-.403a1.726 1.726 0 0 1-.461-.578l-.004-.01-.958.479c.186.377.442.694.753.945l.005.004.666-.84zm-.464-.586c-.113-.228-.18-.521-.18-.897h-1.071c0 .502.09.965.29 1.372l.96-.475zm-.18-.898c0-.377.068-.71.196-1.006l-.983-.426a3.57 3.57 0 0 0-.285 1.432h1.071zm.196-1.005c.135-.311.3-.542.487-.707l-.713-.8a3.036 3.036 0 0 0-.757 1.082l.983.426zm.488-.708c.576-.513 1.454-.811 2.719-.811v-1.071c-1.419 0-2.591.333-3.432 1.083l.713.799zm2.719-.811a4.08 4.08 0 0 1 1.611.323l.418-.986a5.069 5.069 0 0 0-2.01-.409h-.021.001v1.071zm1.606.321c.474.207.78.5.961.873l.963-.468c-.307-.632-.82-1.092-1.497-1.387l-.428.982zm.963.877c.1.202.154.432.154.699h1.071c0-.417-.086-.811-.265-1.174l-.96.474zm.156.659-.063.863 1.068.078.063-.863-1.068-.077zm.474.367-4.242-.021-.005 1.071 4.242.021.005-1.071zm-4.763.651c.126.475.432.834.862 1.078l.527-.933c-.212-.12-.31-.258-.352-.418l-1.036.274zm.863 1.079c.434.243.978.34 1.585.34v-1.071c-.509 0-.848-.084-1.062-.204l-.523.935zm1.585.34c.651 0 1.367-.176 2.136-.496l-.412-.989c-.688.287-1.26.414-1.724.414v1.071zm1.93-.455h.283v-1.071h-.282v1.071zm-.251-.576-.1 1.329 1.068.08.099-1.329-1.068-.08z"/></symbol><symbol id="icon-logo-mob" viewBox="0 0 32 32"><path fill="#f8d24e" style="fill:var(--color2,#f8d24e)" d="M16.112 14.248c1.513-4.047-1.62-6.262-3.696-7.717-.396-.297-.794-.575-1.116-.83a3.879 3.879 0 0 1-1.212-1.79l-.008-.027a3.815 3.815 0 0 1-.025-2.206l-.007.027a.412.412 0 0 0-.123-.421.43.43 0 0 0-.44-.086l.003-.001a7.048 7.048 0 0 0-1.937 1.141l.011-.009c-.548.418-.99.946-1.299 1.553l-.012.026a4.394 4.394 0 0 0-.471 1.987 5.241 5.241 0 0 0-1.028 1.06 3.827 3.827 0 0 0-.758 2.494V9.44a4.922 4.922 0 0 0-1.364 2.08l-.01.035a4.896 4.896 0 0 0-.132 2.539l-.006-.032a1.345 1.345 0 0 0-.554.641l-.003.009c-.109.271-.125.57-.044.851.08.279.251.527.488.702s.524.269.82.267h.028v2.301c0 .234.094.458.261.623s.395.258.632.258h.695l1.132 9.667c.023.215.126.414.29.559s.375.224.595.224h4.709c.219 0 .432-.08.595-.225s.268-.343.293-.558l1.132-9.666h.695a.906.906 0 0 0 .632-.258.872.872 0 0 0 .261-.623v-2.301h.027c.359 0 .704-.14.958-.39s.396-.59.396-.944v-.014c0-.367-.152-.699-.397-.936l-.012.004zM5.921 6.906c.572 2.117 2.779 2.95 4.792 3.695a.434.434 0 0 0 .629-.208l.001-.003a.422.422 0 0 0-.15-.499l-.001-.001a.43.43 0 0 0-.171-.072h-.003C8.85 9.007 6.805 8.252 6.65 6.088a3.571 3.571 0 0 1 .339-1.752l-.009.022a3.655 3.655 0 0 1 1.11-1.367l.009-.007a6.44 6.44 0 0 1 .969-.656 4.657 4.657 0 0 0 .001.832l-.001-.018a4.6 4.6 0 0 0 1.668 3.214l.008.006c.329.278.738.564 1.191.869 1.044.74 2.231 1.566 2.985 2.685.471.662.753 1.487.753 2.377 0 .576-.118 1.124-.331 1.622l.01-.027h-1.755c-3.617 0-7.774-.987-8.595-3.749a3.13 3.13 0 0 1 .01-1.76l-.006.022c.176-.589.5-1.088.93-1.472l.003-.003-.02-.019zm3.255 13.341 1.327 1.307-1.327 1.307-1.326-1.315 1.327-1.299zm3.042 3.432-1.096 1.08-1.327-1.307 1.327-1.303 1.151 1.132-.055.399zm-3.042 2.998L7.85 25.37l1.327-1.307 1.325 1.307-1.326 1.307zm-.607-3.217-1.326 1.307-1.104-1.087-.048-.391 1.151-1.132 1.326 1.303zm-1.937 1.91-.266.262-.068-.595.334.332zm-.139 1.338.75-.74L8.7 27.417a.857.857 0 0 0 .027.086H6.584l-.091-.795zm4.62-.74.751.74-.091.783H9.57l1.545-1.522zm.875-.335-.266-.263.337-.332-.071.595zm.396-3.421-.663-.666.841-.83-.179 1.495zm-1.274-1.261-1.259-1.236h2.517l-1.258 1.236zm-3.871 0L5.98 19.715h2.517l-1.258 1.236zm4.288 8.359H6.821a.032.032 0 0 1-.028-.027l-.111-.939h4.987l-.107.939a.03.03 0 0 1-.011.02.032.032 0 0 1-.021.008h-.004zm3.64-13.634h-1.381a.433.433 0 0 0-.333.11.427.427 0 0 0-.104.49l-.001-.003c.05.11.143.194.256.232l.003.001a.421.421 0 0 0 .18.02h-.002.492v2.302a.031.031 0 0 1-.031.027H4.093a.031.031 0 0 1-.031-.027v-2.302h7.864a.423.423 0 0 0 .279-.711.439.439 0 0 0-.277-.138H3.191a.497.497 0 0 1-.377-.125.478.478 0 0 1 0-.716.492.492 0 0 1 .378-.125H3.19h.901a.434.434 0 0 0 .278-.138.423.423 0 0 0 0-.574.433.433 0 0 0-.277-.137h-.794a4.173 4.173 0 0 1 .061-1.826l-.006.029a4.169 4.169 0 0 1 .817-1.615l-.006.007c.278.852.992 2.018 2.779 2.946 1.68.865 3.902 1.307 6.607 1.307h1.588a.497.497 0 0 1 .377.125c.098.089.16.217.16.359v.001a.49.49 0 0 1-.538.482H15.166zm3.238 11.809-.317.486.007.004.311-.49zm3.413.164.581-.012-.016-.671-.662.112.098.572zm.04 1.786.148.562.443-.117-.01-.457-.581.012zm-4.478.085.13-.567h-.004l-.126.566zm-2.21-.986zm-.8-1.815.58.003v-.003h-.58zm.277-1.269-.521-.257v.002l.521.255zm1.78-1.519.207.543.002-.001-.208-.542zm5.703-.148.578.045.039-.49-.478-.118-.14.563zm-.142 1.82-.108.57.636.121.051-.646-.579-.044zm-1.547-.744c-.871 0-1.604.093-2.139.328-.274.12-.523.29-.705.53a1.354 1.354 0 0 0-.277.825v.015-.001h1.161c0-.068.016-.106.041-.138a.622.622 0 0 1 .247-.168c.312-.137.849-.23 1.67-.23v-1.161zm-3.12 1.696c0 .597.268 1.09.769 1.416l.633-.973a.471.471 0 0 1-.24-.443h-1.161zm.775 1.421c.474.3 1.1.413 1.801.413v-1.161c-.606 0-.975-.102-1.181-.233l-.62.98zm1.801.413c.688 0 1.361-.056 2.018-.167l-.194-1.145c-.542.096-1.167.151-1.804.151h-.021.001v1.161zm1.341-.727.039 1.786 1.161-.026-.04-1.786-1.161.026zm.472 1.211a8.601 8.601 0 0 1-2.199.265v1.161a9.74 9.74 0 0 0 2.494-.303l-.296-1.122zm-2.198.265c-.82 0-1.483-.065-2.001-.184l-.261 1.132c.631.145 1.389.213 2.262.213v-1.161zm-2.005-.185c-.554-.123-.954-.255-1.221-.386l-.51 1.043c.383.187.882.343 1.477.476l.253-1.133zm-1.221-.386a3.532 3.532 0 0 1-.747-.481l.005.004-.751.885c.29.246.619.457.983.634l.509-1.043zm-.741-.476c-.395-.334-.597-.77-.593-1.368l-1.161-.005c-.005.913.326 1.686 1.005 2.259l.749-.887zm-.593-1.372c0-.39.076-.724.219-1.015l-1.043-.51a3.379 3.379 0 0 0-.337 1.483v.045-.002h1.161zm.218-1.013c.264-.537.731-.954 1.465-1.233l-.412-1.085c-.958.364-1.678.96-2.095 1.805l1.042.513zm1.467-1.233c.772-.297 1.634-.45 2.591-.45v-1.161c-1.083 0-2.087.172-3.008.526l.417 1.084zm2.591-.45c.977 0 1.897.109 2.763.323l.279-1.126a12.306 12.306 0 0 0-2.981-.358h-.064.003v1.161zm2.324-.284-.141 1.819 1.157.091.141-1.82-1.157-.09zm.545 1.294a8.741 8.741 0 0 0-1.649-.175h-.006v1.161c.408 0 .887.049 1.439.154l.216-1.14zm5.663.927-.003.581.59.003-.006-.59-.581.006zm-.249-.754-.395.425.005.005.39-.429zm-1.445.057.402.419.004-.005-.406-.414zm-.351.686-.573-.094-.111.67.68.004.003-.581zm4.267 3.095.351.463.208-.158.02-.261-.579-.044zm-1.252.465-.125-.567-.003.001.128.567zm-4.354-.16-.197.546.005.002.193-.548zm-.991-.526-.361.455.007.005.353-.46zm-.663-.834-.521.258.002.002.519-.26zm.679-3.52zm5.306-.629.232-.532-.005-.002-.226.535zm1.332 1.225-.521.254.002.003.52-.258zm.227 1.014.579.042.002-.021v-.021h-.581zm-.068.935-.003.581.542.002.039-.541-.578-.042zm-4.597-.022.003-.581-.757-.003.193.732.561-.148zm.658.811-.286.505.002.002.283-.507zm3.525-.199v-.58h-.116l-.107.044.223.535zm.306 0 .579.044.047-.624h-.626v.581zm-1.749-1.65c-.005-.42-.101-.87-.44-1.178l-.78.86c-.006-.006.008.002.023.052a.95.95 0 0 1 .036.279l1.161-.012zm-.435-1.174c-.304-.283-.705-.376-1.098-.376v1.161c.226 0 .295.055.308.066l.79-.851zm-1.098-.376c-.432 0-.834.136-1.149.444l.813.829c.063-.062.156-.112.336-.112v-1.161zm-1.145.44c-.272.263-.46.611-.521 1.001l-.001.01 1.146.188a.613.613 0 0 1 .181-.361l-.804-.837zm.048 1.686 2.046.011.006-1.161-2.046-.012-.006 1.161zm3.921 2.051c-.127.096-.438.23-1.027.36l.25 1.134c.613-.135 1.137-.311 1.478-.57l-.701-.924zm-1.03.361a7.151 7.151 0 0 1-1.622.19h-.002v1.161c.613 0 1.241-.074 1.879-.219l-.256-1.132zm-1.624.19c-.547 0-.997-.026-1.357-.074l-.155 1.15c.427.058.933.085 1.512.085v-1.161zm-1.356-.074a5.32 5.32 0 0 1-1.052-.255l-.386 1.095c.421.148.85.253 1.283.311l.155-1.15zm-1.048-.254a3.094 3.094 0 0 1-.845-.448l.008.006-.706.921c.33.254.716.456 1.147.612l.396-1.091zm-.829-.437a1.848 1.848 0 0 1-.499-.626l-.005-.011-1.038.519c.204.409.476.756.822 1.029l.72-.91zm-.504-.635c-.122-.247-.195-.565-.195-.973h-1.161c0 .545.098 1.047.315 1.488l1.04-.515zm-.195-.973c0-.408.074-.769.213-1.09l-1.065-.462a3.808 3.808 0 0 0-.309 1.514v.04-.002h1.161zm.213-1.09c.147-.337.325-.586.528-.766l-.773-.867a3.306 3.306 0 0 0-.82 1.171l1.065.462zm.529-.767c.624-.556 1.576-.878 2.946-.878v-1.161c-1.538 0-2.808.361-3.719 1.173l.773.866zm2.946-.878c.616 0 1.196.117 1.746.35l.453-1.069a5.485 5.485 0 0 0-2.178-.443h-.023.001v1.161zm1.741.348c.514.224.846.542 1.043.946l1.044-.507c-.332-.684-.888-1.182-1.622-1.503l-.464 1.065zm1.044.949c.108.219.166.468.166.757h1.161c0-.451-.094-.878-.287-1.271l-1.04.514zm.168.716-.068.935 1.158.084.068-.935-1.158-.084zm.514.397-4.597-.023-.006 1.161 4.597.023.006-1.161zm-5.161.706c.136.514.468.905.933 1.168l.571-1.011c-.229-.13-.336-.28-.382-.453l-1.122.296zm.935 1.169c.471.263 1.06.368 1.717.368v-1.161c-.551 0-.918-.091-1.15-.222l-.567 1.014zm1.717.368c.706 0 1.482-.191 2.316-.538l-.446-1.072c-.746.311-1.366.449-1.869.449v1.161zm2.091-.493h.307v-1.161h-.306v1.161zm-.272-.623-.108 1.44 1.158.086.108-1.439-1.158-.087z"/></symbol><symbol id="icon-logo-tab" viewBox="0 0 32 32"><path fill="#f8d24e" style="fill:var(--color2,#f8d24e)" d="M16.324 14.283c1.533-4.111-1.641-6.36-3.745-7.84-.402-.301-.804-.584-1.13-.842a3.939 3.939 0 0 1-1.228-1.818l-.008-.028a3.894 3.894 0 0 1-.025-2.24l-.007.027a.424.424 0 0 0-.125-.428.433.433 0 0 0-.445-.087l.003-.001a7.127 7.127 0 0 0-1.951 1.149 4.62 4.62 0 0 0-1.316 1.577l-.012.026a4.48 4.48 0 0 0-.478 2.017v.001a5.429 5.429 0 0 0-1.032 1.062l-.01.015a3.893 3.893 0 0 0-.767 2.533v-.009a4.998 4.998 0 0 0-1.383 2.113l-.01.035a4.836 4.836 0 0 0-.244 1.534c0 .358.038.708.111 1.045l-.006-.033a1.358 1.358 0 0 0-.661 1.156c0 .131.019.258.054.377l-.002-.009c.081.285.255.535.494.713s.531.273.831.271h.028v2.337c0 .237.095.465.265.633s.4.262.64.262h.704l1.147 9.819a.88.88 0 0 0 .293.567.912.912 0 0 0 .603.228h4.771c.223-.001.437-.082.603-.229s.272-.348.297-.567l1.147-9.819h.704c.24 0 .47-.094.64-.262s.265-.395.265-.633v-2.337h.029c.378 0 .72-.152.969-.398.257-.253.402-.599.402-.958v-.016c0-.373-.154-.71-.402-.95l-.012.005zM5.999 6.825c.58 2.151 2.816 2.997 4.855 3.753a.441.441 0 0 0 .638-.21l.001-.003a.43.43 0 0 0-.152-.507l-.001-.001a.433.433 0 0 0-.173-.074h-.003c-2.196-.823-4.267-1.59-4.425-3.789a3.623 3.623 0 0 1 .344-1.78l-.009.022a3.703 3.703 0 0 1 1.124-1.387l.009-.007c.288-.238.609-.459.949-.651l.033-.017a4.8 4.8 0 0 0 .001.845L9.189 3c.047.63.221 1.244.513 1.807a4.766 4.766 0 0 0 1.177 1.459l.008.006c.333.282.748.572 1.207.882 1.058.751 2.261 1.59 3.025 2.727.477.673.763 1.511.763 2.415 0 .584-.119 1.141-.335 1.647l.01-.027h-1.778c-3.664.001-7.875-1.001-8.708-3.807a3.18 3.18 0 0 1 .009-1.788l-.006.023a3.23 3.23 0 0 1 .942-1.495l.003-.003-.02-.02zm3.298 13.552 1.343 1.327-1.343 1.328-1.343-1.336 1.343-1.32zm3.082 3.487-1.111 1.097-1.343-1.328 1.343-1.323 1.167 1.149-.056.405zm-3.082 3.045L7.953 25.58l1.343-1.328 1.343 1.328-1.343 1.328zm-.615-3.268-1.343 1.328-1.119-1.105-.048-.397 1.167-1.149 1.343 1.323zm-1.963 1.94-.269.267-.068-.605.337.338zm-.14 1.36.76-.752 1.476 1.471a.678.678 0 0 0 .028.087H6.671l-.093-.807zm4.681-.752.76.751-.092.795H9.695l1.565-1.547zm.885-.342-.27-.267.342-.338-.072.605zm.402-3.474-.672-.676.853-.843-.181 1.519zm-1.291-1.28-1.275-1.256h2.55l-1.275 1.256zm-3.922 0L6.06 19.837h2.55l-1.275 1.256zm4.345 8.491H6.912a.032.032 0 0 1-.028-.028l-.113-.954h5.053l-.109.954a.032.032 0 0 1-.032.028h-.004zm3.688-13.851h-1.4a.444.444 0 0 0-.336.111.433.433 0 0 0-.105.499l-.001-.003a.437.437 0 0 0 .26.235l.003.001a.44.44 0 0 0 .18.02h.499v2.337a.032.032 0 0 1-.032.028H4.15a.032.032 0 0 1-.032-.028v-2.337h7.968a.437.437 0 0 0 .282-.14.431.431 0 0 0-.281-.722H3.236a.503.503 0 0 1-.499-.289l-.001-.003a.488.488 0 0 1 .12-.562.497.497 0 0 1 .382-.127h-.002.913a.437.437 0 0 0 .282-.14.428.428 0 0 0 0-.584.44.44 0 0 0-.281-.14h-.807a4.2 4.2 0 0 1 .061-1.854l-.006.029a4.254 4.254 0 0 1 .828-1.642l-.006.008c.282.867 1.006 2.051 2.816 2.993 1.701.878 3.954 1.327 6.693 1.327h1.609a.502.502 0 0 1 .382.127.492.492 0 0 1 .001.729.497.497 0 0 1-.384.127h.031zm3.212 11.438-.322.493.007.005.315-.498zm3.466.166.589-.013-.015-.682-.673.114.099.581zm.04 1.814.15.571.45-.119-.011-.465-.589.013zm-4.549.086.133-.575h-.003l-.129.575zm-2.245-1.002.382-.449-.001-.001-.38.45zm-.811-1.842.589.003v-.003h-.589zm.282-1.29-.529-.26v.001l.529.26zm1.808-1.542.209.551h.003l-.211-.551zm5.792-.15.588.046.039-.498-.485-.12-.142.572zm-.144 1.848-.11.58.647.122.051-.656-.588-.046zm-1.572-.756c-.885 0-1.629.094-2.172.333a1.78 1.78 0 0 0-.716.538 1.38 1.38 0 0 0-.281.837v.016-.001h1.179a.21.21 0 0 1 .042-.14c.031-.04.1-.104.251-.171.317-.139.863-.233 1.697-.233v-1.18zm-3.169 1.723c0 .607.272 1.107.78 1.439l.644-.988a.48.48 0 0 1-.245-.451h-1.18zm.787 1.443c.481.305 1.117.42 1.829.42v-1.18c-.615 0-.989-.104-1.199-.237l-.631.997zm1.829.42c.7 0 1.383-.057 2.051-.17l-.197-1.163c-.6.102-1.217.153-1.853.153v1.179zm1.363-.738.04 1.813 1.179-.027-.04-1.813-1.179.027zm.48 1.23a8.786 8.786 0 0 1-2.234.269v1.179a9.95 9.95 0 0 0 2.533-.307l-.3-1.14zm-2.234.268c-.833 0-1.507-.065-2.033-.187l-.265 1.149c.641.147 1.411.217 2.297.217v-1.179zm-2.036-.186c-.563-.127-.969-.26-1.24-.393l-.518 1.06c.389.19.896.348 1.5.483l.258-1.151zm-1.24-.393a3.617 3.617 0 0 1-.759-.488l.005.005-.763.899c.295.25.629.464.998.644l.517-1.059zm-.753-.485c-.401-.339-.607-.781-.603-1.389l-1.179-.006c-.005.927.331 1.713 1.021 2.296l.761-.901zm-.604-1.392c0-.397.078-.736.222-1.031l-1.059-.519a3.477 3.477 0 0 0-.343 1.549h1.179zm.222-1.03c.269-.545.742-.969 1.488-1.252l-.418-1.102c-.973.369-1.705.975-2.128 1.833l1.058.521zm1.49-1.252c.784-.301 1.66-.456 2.633-.456v-1.179c-1.1 0-2.12.175-3.055.534l.423 1.101zm2.633-.456c.993 0 1.927.111 2.807.328l.283-1.144a12.467 12.467 0 0 0-3.026-.363h-.067.003v1.179zm2.36-.29-.144 1.849 1.176.091.144-1.848-1.176-.092zm.553 1.315a9.059 9.059 0 0 0-1.681-.178v1.18c.415 0 .901.05 1.462.156l.22-1.158zm5.754.941-.003.59.599.003-.007-.599-.589.007zm-.254-.765-.401.432.005.005.396-.437zm-1.468.057.409.425.004-.004-.413-.421zm-.357.697-.582-.095-.112.681.691.004.003-.59zm4.335 3.144.356.469.212-.16.02-.265-.588-.044zm-1.272.472-.127-.576-.003.001.13.575zm-4.422-.161-.201.554.005.002.197-.556zm-1.008-.536-.366.462.007.005.359-.467zm-.673-.846-.529.261.001.003.527-.264zm.691-3.576zm5.389-.639.236-.54-.006-.003-.23.543zm1.353 1.244-.531.258.001.003.529-.261zm.23 1.031.588.043.001-.021v-.021h-.589zm-.069.95-.003.589.551.003.04-.549-.588-.043zm-4.669-.024.003-.589-.769-.004.196.744.57-.151zm.668.824-.29.513.002.001.288-.515zm3.581-.202v-.589h-.118l-.109.045.227.544zm.311 0 .588.044.047-.633h-.635v.589zm-1.777-1.676c-.005-.427-.103-.884-.447-1.196l-.793.873c-.007-.007.007.001.024.052a.978.978 0 0 1 .036.283l1.179-.013zm-.442-1.191c-.309-.287-.715-.382-1.115-.382v1.179c.229 0 .3.055.313.067l.802-.863zm-1.115-.382c-.439 0-.847.137-1.167.45l.825.843c.065-.063.159-.113.342-.113v-1.18zm-1.162.447c-.276.266-.468.62-.529 1.016l-.001.01 1.163.191a.616.616 0 0 1 .184-.366l-.817-.851zm.048 1.711 2.079.011.007-1.179-2.079-.011-.007 1.179zm3.982 2.084c-.129.098-.445.235-1.043.367l.253 1.151c.623-.137 1.155-.315 1.502-.579l-.712-.94zm-1.046.367a7.474 7.474 0 0 1-1.649.193v1.179c.623 0 1.26-.075 1.909-.222l-.26-1.15zm-1.649.193a10.58 10.58 0 0 1-1.378-.076l-.157 1.169c.433.059.947.087 1.535.087v-1.18zm-1.378-.076a5.312 5.312 0 0 1-1.106-.271l.037.012-.393 1.112c.375.138.815.248 1.27.312l.034.004.157-1.169zm-1.064-.257a3.147 3.147 0 0 1-.858-.455l.008.006-.717.936c.336.257.727.463 1.165.621l.402-1.108zm-.843-.444a1.885 1.885 0 0 1-.507-.636l-.005-.011-1.055.527c.205.416.487.764.829 1.041l.006.005.732-.925zm-.511-.646c-.124-.251-.198-.573-.198-.988h-1.179c0 .553.099 1.063.32 1.511l1.057-.523zm-.198-.988c0-.415.075-.781.217-1.107l-1.082-.469a3.863 3.863 0 0 0-.314 1.537v.041-.002h1.179zm.217-1.106a2.19 2.19 0 0 1 .536-.779l-.785-.881a3.338 3.338 0 0 0-.833 1.19l1.081.469zm.536-.78c.633-.565 1.6-.893 2.993-.893v-1.179c-1.563 0-2.853.367-3.778 1.191l.785.88zm2.994-.892c.625 0 1.214.119 1.773.357l.46-1.086a5.578 5.578 0 0 0-2.212-.449h-.023.001v1.179zm1.767.354c.522.228.859.551 1.059.961l1.06-.516c-.337-.695-.902-1.201-1.647-1.527l-.472 1.081zm1.06.964c.111.223.17.476.17.769h1.179c0-.459-.094-.893-.291-1.292l-1.057.522zm.171.727-.069.95 1.176.085.069-.95-1.176-.085zm.522.403-4.67-.023-.005 1.179 4.669.023.006-1.179zm-5.242.717c.138.523.475.919.948 1.187l.58-1.027c-.233-.132-.341-.285-.388-.461l-1.14.3zm.95 1.187c.479.267 1.077.375 1.745.375v-1.179c-.56 0-.933-.093-1.169-.225l-.576 1.029zm1.744.375c.717 0 1.505-.194 2.351-.547l-.453-1.088c-.758.315-1.387.455-1.898.455v1.179zm2.125-.501h.311v-1.179h-.311v1.179zm-.277-.634-.109 1.463 1.176.088.109-1.463-1.176-.088z"/></symbol><symbol id="icon-menu-close" viewBox="0 0 32 32"><path fill="#fcfcfc" style="fill:var(--color1,#fcfcfc)" d="M28.614 1.13 16 13.744 3.386 1.13a1.597 1.597 0 0 0-2.255 2.257l-.001-.001L13.738 16 1.127 28.611a1.595 1.595 0 0 0 1.747 2.616l-.01.004c.202-.089.375-.211.518-.361l.001-.001 12.618-12.611 12.614 12.614a1.597 1.597 0 0 0 2.255-2.257l.001.001-12.614-12.614L30.871 3.384a1.596 1.596 0 1 0-2.256-2.259v.003z"/></symbol><symbol id="icon-menu-open" viewBox="0 0 32 32"><path fill="none" stroke="#fff" style="stroke:var(--color6,#fff)" stroke-linecap="round" stroke-width="2" d="M6 10h20M6 16h20M6 22h20"/></symbol><symbol id="icon-modal-close" viewBox="0 0 40 40"><path d="M18.088 16 30.371 3.717a1.483 1.483 0 0 0-2.093-2.086l.002-.002L16 13.912 3.717 1.616a1.488 1.488 0 1 0-2.105 2.101l.001.001 12.296 12.283-12.293 12.28a1.482 1.482 0 1 0 2.087 2.093l.002-.002 12.293-12.283 12.283 12.283a1.483 1.483 0 0 0 2.089-2.093l.002.002-12.283-12.28z"/></symbol><symbol id="icon-telegram-focus" viewBox="0 0 32 32"><path fill="#f8d24e" style="fill:var(--color2,#f8d24e)" d="M32 16c0 8.837-7.163 16-16 16S0 24.837 0 16 7.163 0 16 0s16 7.163 16 16z"/><path fill="#fff" style="fill:var(--color6,#fff)" d="m12.866 18.375-.317 4.169c.454 0 .651-.182.887-.4l2.13-1.901 4.415 3.017c.809.422 1.381.2 1.598-.695l2.898-12.673c.257-1.117-.432-1.554-1.221-1.28L6.224 14.698c-1.162.421-1.145 1.026-.197 1.3l4.355 1.264 10.115-5.906c.475-.294.908-.132.552.163l-8.182 6.856z"/></symbol><symbol id="icon-telegram-hover" viewBox="0 0 32 32"><path fill="#f8d24e" style="fill:var(--color2,#f8d24e)" d="M32 16c0 8.837-7.163 16-16 16S0 24.837 0 16 7.163 0 16 0s16 7.163 16 16z"/><path fill="#fff" style="fill:var(--color6,#fff)" d="m12.866 18.375-.318 4.17c.455 0 .652-.183.888-.401l2.13-1.9 4.414 3.017c.81.42 1.38.199 1.599-.695l2.898-12.673c.257-1.118-.432-1.554-1.221-1.28L6.223 14.699c-1.162.42-1.144 1.026-.197 1.3l4.354 1.264 10.115-5.907c.476-.294.909-.131.553.163l-8.182 6.856z"/></symbol><symbol id="icon-telegram-mob" viewBox="0 0 32 32"><path fill="#f8d24e" style="fill:var(--color2,#f8d24e)" d="M31.258 16.43c0 8.571-6.946 15.519-15.515 15.519S.228 25.001.228 16.43 7.174.911 15.743.911 31.258 7.859 31.258 16.43z"/><path fill="#84a178" style="fill:var(--color4,#84a178)" d="m12.705 18.735-.307 4.044c.44 0 .63-.177.86-.39l2.065-1.842 4.281 2.927c.785.407 1.338.194 1.55-.675l2.81-12.291c.25-1.084-.419-1.508-1.183-1.241L6.264 15.169c-1.128.407-1.11.995-.192 1.261l4.223 1.226 9.807-5.729c.462-.285.882-.128.536.158l-7.934 6.65z"/></symbol><symbol id="icon-telegram"><svg width="22" height="16"><path d="m8.673 10.524-.338 4.43c.483 0 .692-.194.943-.426l2.264-2.02 4.69 3.207c.86.447 1.466.211 1.698-.739l3.08-13.464V1.51c.273-1.186-.46-1.65-1.298-1.36L1.615 6.617C.38 7.065.399 7.707 1.405 8l4.627 1.343 10.747-6.276c.505-.313.965-.14.587.173l-8.693 7.285Z"/></svg></symbol><symbol id="icon-weight-in-yellow-circle" viewBox="0 0 32 32"><path fill="#f8d24e" style="fill:var(--color2,#f8d24e)" d="M16 0c8.837 0 16 7.163 16 16s-7.163 16-16 16S0 24.837 0 16 7.163 0 16 0z"/><path fill="#131313" style="fill:var(--color3,#131313)" d="M14.688 4.874c-2.861.424-5.218 2.013-6.085 4.093-.276.657-.351 1.061-.351 1.853.005.585.026.802.117 1.118.186.621.319.936.595 1.381l.256.414-.288.352c-2.271 2.826-2.521 6.8-.627 9.931.707 1.175 1.862 2.329 2.989 3.002l.335.196 9.175-.077.218-.119c.761-.429 1.835-1.387 2.436-2.163a9.003 9.003 0 0 0 1.737-3.993l.007-.053c.085-.533.085-2.112-.005-2.614-.271-1.547-.851-2.872-1.766-4.047a4.693 4.693 0 0 1-.314-.424c0-.01.096-.171.207-.352.26-.414.495-.947.622-1.412.143-.518.143-1.811 0-2.329-.511-1.837-2.042-3.369-4.207-4.212-.607-.238-1.644-.492-2.314-.574-.622-.072-2.159-.058-2.739.031zm3.238.843c2.84.554 4.92 2.292 5.303 4.435.085.481.032 1.299-.111 1.754a5.58 5.58 0 0 1-.723 1.412c-.128.181-.234.388-.234.456s.111.243.271.419c1.329 1.475 2.031 3.322 2.031 5.32-.005 2.272-.877 4.264-2.558 5.827a8.892 8.892 0 0 1-.915.75l-.399.269-8.792.036-.34-.218c-1.234-.801-2.346-2.126-2.963-3.534a7.945 7.945 0 0 1-.223-5.697c.335-.963.782-1.749 1.462-2.577.277-.332.404-.528.404-.621 0-.078-.138-.332-.319-.595-.638-.927-.899-1.956-.744-2.929.16-.983.606-1.791 1.431-2.593 1.074-1.04 2.574-1.728 4.335-1.987.728-.109 2.34-.067 3.085.072z"/><path fill="#131313" style="fill:var(--color3,#131313)" d="M14.927 6.628c-2.18.357-3.888 1.568-4.446 3.157-.128.357-.149.497-.149 1.009s.021.652.149 1.009c.079.228.228.544.33.704.276.445.399.461.947.129a8.462 8.462 0 0 1 2.683-1.062l.056-.01c.659-.134 1.925-.186 2.643-.103a8.737 8.737 0 0 1 3.313 1.107c.276.16.559.294.627.294.404 0 .92-1.164.92-2.069 0-2.013-1.925-3.736-4.653-4.166-.58-.093-1.862-.093-2.42 0zm2.633.828c.915.196 1.755.57 2.388 1.061.851.657 1.308 1.573 1.233 2.458-.026.352-.159.828-.239.88-.022.01-.32-.114-.66-.279a10.17 10.17 0 0 0-2.254-.779l-.07-.013c-.495-.103-.702-.119-1.808-.114-1.091 0-1.319.016-1.792.114a9.613 9.613 0 0 0-2.245.766c-.792.378-.75.383-.893-.083-.186-.605-.069-1.407.292-2.013.192-.321.718-.854 1.101-1.117.729-.502 1.367-.73 2.739-.979.282-.051 1.846.021 2.207.099zm-.867 6.675c-.149.187-.149.363.005.513.101.099.202.124.57.15a4.673 4.673 0 0 1 2.027.623l-.022-.012c.436.259 1.101.885 1.399 1.335.442.646.744 1.573.744 2.257 0 .238.022.31.133.413.17.171.394.171.559 0 .117-.119.122-.15.09-.657-.149-2.505-2.292-4.595-4.856-4.736l-.532-.031-.116.145z"/></symbol><symbol id="icon-weight" viewBox="0 0 32 32"><path d="M14.178.547c-3.974.589-7.247 2.796-8.452 5.685-.384.913-.487 1.474-.487 2.573.007.812.036 1.114.163 1.552.258.862.443 1.301.827 1.92l.356.574-.4.489c-3.154 3.924-3.501 9.444-.871 13.793.982 1.631 2.586 3.235 4.151 4.169l.466.273 12.743-.108.302-.165c1.057-.596 2.548-1.926 3.383-3.004a12.51 12.51 0 0 0 2.413-5.546l.01-.074c.118-.74.118-2.933-.007-3.63-.377-2.148-1.182-3.988-2.452-5.62-.244-.309-.436-.568-.436-.589 0-.014.133-.237.288-.489a7.777 7.777 0 0 0 .864-1.962c.199-.719.199-2.516 0-3.235-.709-2.551-2.836-4.679-5.843-5.851-.843-.331-2.284-.683-3.214-.797-.864-.101-2.999-.08-3.804.043zm4.498 1.171c3.945.769 6.834 3.184 7.365 6.16.118.668.044 1.804-.155 2.436-.2.619-.569 1.345-1.004 1.963-.178.252-.325.54-.325.633s.155.338.377.582c1.846 2.048 2.821 4.614 2.821 7.388-.007 3.156-1.219 5.923-3.553 8.093-.399.373-.968.841-1.271 1.042l-.554.373-12.211.051-.473-.302c-1.714-1.114-3.258-2.954-4.115-4.908-1.078-2.472-1.189-5.34-.31-7.913.466-1.337 1.086-2.429 2.031-3.58.385-.46.562-.733.562-.862 0-.108-.192-.46-.444-.827-.886-1.287-1.248-2.717-1.034-4.068.222-1.365.842-2.487 1.987-3.601 1.493-1.444 3.576-2.4 6.021-2.76 1.012-.151 3.25-.093 4.284.1z"/><path d="M14.509 2.983c-3.028.496-5.4 2.178-6.175 4.385-.178.495-.207.69-.207 1.401s.029.907.207 1.402c.11.316.317.755.458.978.384.618.554.64 1.316.18a11.719 11.719 0 0 1 3.727-1.474l.078-.014c.916-.187 2.674-.259 3.671-.144 1.558.18 3.25.74 4.602 1.538.384.223.776.411.871.411.562 0 1.278-1.618 1.278-2.876 0-2.796-2.674-5.189-6.463-5.786-.805-.129-2.587-.129-3.362 0zm3.657 1.15c1.271.273 2.437.791 3.317 1.473 1.182.913 1.817 2.186 1.713 3.414-.036.489-.221 1.15-.332 1.222-.03.014-.444-.158-.916-.388a14.19 14.19 0 0 0-3.131-1.081l-.097-.018c-.687-.144-.975-.165-2.511-.158-1.515 0-1.832.021-2.489.158a13.307 13.307 0 0 0-3.118 1.064c-1.1.524-1.042.532-1.241-.116-.258-.841-.096-1.955.406-2.796.267-.445.997-1.186 1.529-1.553 1.012-.697 1.899-1.013 3.804-1.358.391-.071 2.564.029 3.066.137zm-1.203 9.271c-.207.26-.207.504.007.712.14.137.281.172.791.209a6.489 6.489 0 0 1 2.815.865l-.031-.017c.606.359 1.529 1.228 1.943 1.854.613.898 1.034 2.185 1.034 3.133 0 .331.03.431.185.575.236.237.547.237.776 0 .163-.165.169-.208.125-.913-.207-3.478-3.184-6.382-6.744-6.576l-.74-.044-.162.202z"/></symbol><symbol id="icon-vector-12px" viewBox="0 0 32 32"><path stroke-linejoin="round" stroke-linecap="round" stroke-width="5.333" d="M10.667 5.333 23.863 16 10.667 26.667"/><symbol id="icon-ice-cream-in-yellow-circle" viewBox="0 0 31 32"><path fill="#f8d24e" style="fill:var(--color1,#f8d24e)" d="M15.686 0c8.663 0 15.686 7.023 15.686 15.686v.008c0 8.663-7.023 15.686-15.686 15.686S0 24.357 0 15.694v-.008C0 7.023 7.023 0 15.686 0z"/><path style="fill:var(--color2,#000)" d="M15.763 4.467c.056.152.17.884.17 1.111v.008c0 .577-.225 1.102-.591 1.492l.001-.001c-.317.34-.634.529-1.394.836-.846.345-1.196.553-1.592.945-.402.402-.638.841-.723 1.357-.095.562 0 .959.288 1.186l.146.113-.232.147c-.467.307-1.318 1.03-1.464 1.252-.284.425-.255.822.066.983l.151.075-.17.161c-.255.241-.307.407-.27.841.024.289.014.445-.051.681-.08.307-.08.312.023.53.104.213.397.482.662.595.127.056.132.075.161.51.014.251.038 1.049.056 1.777.014.728.048 1.394.075 1.474a.567.567 0 0 0 .194.255c.274.189.463.393.585.629.137.27.289.931.747 3.218l.322 1.606.198.189c.378.373 1.101.543 2.292.543 1.195 0 1.909-.166 2.287-.539l.203-.193.292-1.489c.647-3.256.704-3.435 1.21-3.837.156-.128.307-.284.335-.355.033-.08.067-.7.09-1.635.019-.831.048-1.654.067-1.829l.028-.316.307-.232c.387-.297.538-.567.538-.983-.004-.491-.326-1.03-.912-1.512l-.279-.226.137-.194c.572-.789.213-1.88-.851-2.608l-.321-.222.118-.123c.525-.562.61-2.24.17-3.407-.264-.695-.87-1.451-1.611-2.008-.363-.274-1.365-.879-1.454-.879-.019 0-.019.033-.004.075zm1.36 1.651c.251.246.553.581.671.751.704.983.883 2.217.458 3.124-.17.368-.681.916-1.153 1.242-.723.501-2.349 1.343-3.482 1.805-1.824.742-2.883.884-3.005.397-.048-.184.09-.331.671-.718.524-.359 2.877-2.108 2.92-2.178.014-.019-.227.09-.53.241-1.025.52-1.512.42-1.488-.302.014-.525.392-1.119.916-1.46.133-.085.544-.274.922-.425 1.242-.501 1.621-.756 2.041-1.384.251-.373.525-1.064.543-1.357.005-.104.024-.184.038-.184s.227.203.477.449zm1.29 5.368c.345.193.704.525.86.784.275.467.133.936-.458 1.531-.642.653-1.739 1.276-2.944 1.673-1.111.364-2.174.534-3.696.586l-.945.033.615.038c.794.052 2.329.005 2.925-.09 1.583-.251 2.93-.752 3.894-1.441.218-.156.444-.284.506-.284.156 0 .836.653.973.926.076.156.095.27.08.42-.071.629-.836.964-2.684 1.186-2.259.27-5.212.005-6.474-.576-.596-.274-.695-.43-.543-.846.047-.132.056-.289.038-.511-.024-.293-.019-.331.085-.439.237-.255.634-.402 2.089-.771.51-.132 1.205-.34 1.535-.463.803-.293 2.311-1.054 3.01-1.522.657-.435.752-.454 1.134-.236zm-6.276 5.784c.993.289 1.872.373 3.507.34 1.229-.023 1.985-.099 3.076-.293.223-.038.416-.071.44-.071.052 0 .038 1.815-.019 2.292-.061.506-.199.898-.345.993-.151.099-.907.203-1.919.26-2.074.113-4.206 0-4.867-.265-.359-.146-.397-.336-.402-2.089 0-1.167.009-1.328.071-1.304.038.014.245.075.458.137zm1.12 4.017c.341.043.709.085.822.099l.204.024-.18.198c-.232.25-.586.751-.713 1.006-.146.293-.194.312-.411.194l-.184-.104-.104-.642a17.11 17.11 0 0 0-.152-.859l.02.117c-.043-.122-.085-.122.699-.033zm5.038-.052c0 .009-.024.132-.048.27-.028.141-.146.912-.264 1.715-.241 1.678-.402 2.466-.548 2.731-.203.355-.69.562-1.479.629-.307.024-1.234-.038-1.286-.085-.038-.042.775-1.049.903-1.115.118-.067.151-.056.552.151.468.247.705.284.705.128s-.123-.307-.425-.514c-.279-.199-.378-.312-.378-.445 0-.038.137-.25.302-.472s.406-.577.529-.789l.232-.383.212.029c.43.061.543.056.53-.038-.009-.048-.09-.184-.18-.298-.09-.118-.161-.237-.161-.26 0-.09.439-.917.582-1.092.123-.151.222-.227.222-.161zm-2.953.378c.236.156 1.124.926 1.181 1.021.024.043-.888 1.47-1.068 1.673-.019.024-.118-.023-.217-.099-.22-.166-.488-.352-.762-.531l-.06-.037-.638-.42.383-.648c.68-1.139.666-1.12.813-1.12.075 0 .241.071.369.161zm1.791.17c-.166.203-.302.331-.359.331-.123 0-.322-.109-.657-.355l-.279-.203.558-.033c.246-.009.47-.024.692-.046l-.046.004c.378-.061.378-.056.09.303zm-3.573 2.273c.435.17 1.172.572 1.385.752.151.122.151.132.09.283-.1.199-.197.364-.304.523l.011-.017a7.284 7.284 0 0 0-.295.482l-.022.043c-.151.293-.198.317-.51.232-.336-.1-.514-.27-.609-.577-.128-.43-.331-1.644-.307-1.833.009-.071.208-.028.562.114z"/></symbol><symbol id="icon-modal-close-btn-mob" viewBox="0 0 32 32"><path d="m17.254 16 7.368-7.368a.89.89 0 0 0-1.254-1.253l.001-.001-7.37 7.368-7.368-7.378a.893.893 0 0 0-1.262 1.264L14.747 16l-7.38 7.368a.89.89 0 1 0 1.253 1.255l.001-.001 7.38-7.368 7.368 7.368a.89.89 0 0 0 1.25-1.256l.001.001-7.368-7.368z"/></symbol></symbol></symbol></symbol></defs></svg>