<svg aria-hidden="true" style="position: absolute; width: 0; height: 0; overflow: hidden;" version="1.1" xmlns="http://www.w3.org/2000/svg" xmlns:xlink="http://www.w3.org/1999/xlink">
<defs>
<symbol id="arrow-hero">
  <path d="M40.707 8.707a1 1 0 0 0 0-1.414L34.343.929a1 1 0 1 0-1.414 1.414L38.586 8l-5.657 5.657a1 1 0 0 0 1.414 1.414l6.364-6.364ZM0 9h40V7H0v2Z" fill="#FCFCFC"/>
<symbol/>
<symbol id="vector-btn">
  <path d="m1 1 4.95 4L1 9" stroke-width="2" stroke-linecap="round" stroke-linejoin="round"/>
<symbol/>
<symbol id="icon-arrow-focus" viewBox="0 0 32 32">
<path d="M31.422 16.652c0.167-0.167 0.27-0.398 0.27-0.652s-0.103-0.485-0.27-0.652v0l-5.874-5.875c-0.167-0.167-0.398-0.27-0.653-0.27-0.51 0-0.923 0.413-0.923 0.923 0 0.255 0.103 0.486 0.27 0.653l5.223 5.222-5.222 5.222c-0.167 0.167-0.27 0.398-0.27 0.653 0 0.51 0.413 0.923 0.923 0.923 0.255 0 0.486-0.103 0.653-0.27l5.874-5.874zM0 16.923h30.769v-1.846h-30.769v1.846z"></path>
</symbol>
<symbol id="icon-arrow-hero-default" viewBox="0 0 32 32">
<path fill="#fcfcfc" style="fill: var(--color1, #fcfcfc)" d="M31.771 16.552c0.141-0.141 0.229-0.336 0.229-0.552s-0.087-0.411-0.229-0.552l-4.967-4.967c-0.142-0.147-0.341-0.238-0.561-0.238-0.431 0-0.78 0.349-0.78 0.78 0 0.22 0.091 0.419 0.238 0.561l4.415 4.415-4.415 4.415c-0.136 0.14-0.219 0.331-0.219 0.542 0 0.431 0.349 0.78 0.78 0.78 0.211 0 0.402-0.084 0.542-0.219l4.967-4.967zM0 16.78h31.22v-1.561h-31.22v1.561z"></path>
</symbol>
<symbol id="icon-arrow-hover" viewBox="0 0 32 32">
<path d="M31.816 16.444c0.113-0.114 0.184-0.27 0.184-0.444s-0.070-0.33-0.184-0.444l-3.993-3.993c-0.114-0.118-0.274-0.192-0.451-0.192-0.347 0-0.627 0.281-0.627 0.627 0 0.177 0.073 0.337 0.191 0.451l0 0 3.549 3.55-3.55 3.55c-0.109 0.113-0.176 0.266-0.176 0.436 0 0.347 0.281 0.627 0.627 0.627 0.169 0 0.323-0.067 0.436-0.176l-0 0 3.993-3.993zM0 16.627h31.373v-1.255h-31.373v1.255z"></path>
</symbol>
<symbol id="icon-arrow-products-tab-and-mob" viewBox="0 0 32 32">
<path d="M31.771 16.552c0.141-0.141 0.229-0.336 0.229-0.552s-0.087-0.411-0.229-0.552l-4.967-4.967c-0.142-0.147-0.341-0.238-0.561-0.238-0.431 0-0.78 0.349-0.78 0.78 0 0.22 0.091 0.419 0.238 0.561l4.415 4.415-4.415 4.415c-0.136 0.14-0.219 0.331-0.219 0.542 0 0.431 0.349 0.78 0.78 0.78 0.211 0 0.402-0.084 0.542-0.219l4.967-4.967zM0 16.78h31.22v-1.561h-31.22v1.561z"></path>
</symbol>
<symbol id="icon-arrow-products" viewBox="0 0 32 32">
<path d="M31.483 16.454c0.138-0.138 0.223-0.328 0.223-0.539s-0.085-0.401-0.223-0.539v0l-4.849-4.849c-0.138-0.138-0.328-0.223-0.539-0.223-0.421 0-0.762 0.341-0.762 0.762 0 0.211 0.085 0.401 0.223 0.539l4.309 4.309-4.31 4.31c-0.138 0.138-0.223 0.329-0.223 0.539 0 0.421 0.341 0.762 0.762 0.762 0.21 0 0.401-0.085 0.539-0.223l4.849-4.849zM0.29 16.677h30.655v-1.524h-30.655v1.524z"></path>
</symbol>
<symbol id="icon-btn-arrow" viewBox="0 0 32 32">
<path stroke-linejoin="round" stroke-linecap="round" stroke-miterlimit="4" stroke-width="6.4" d="M8 3.2l15.84 12.8-15.84 12.8"></path>
</symbol>
<symbol id="icon-cow-in-yellow-circle" viewBox="0 0 32 32">
<path fill="#f8d24e" style="fill: var(--color2, #f8d24e)" d="M16 0c8.837 0 16 7.163 16 16s-7.163 16-16 16c-8.837 0-16-7.163-16-16s7.163-16 16-16z"></path>
<path fill="#131313" style="fill: var(--color3, #131313)" d="M8.922 4.618c-0.188 0.163-0.725 1.283-0.918 1.894-0.229 0.757-0.307 1.325-0.276 2.109 0.042 1.12 0.323 1.97 0.943 2.857 0.162 0.233 0.292 0.433 0.292 0.449 0 0.011-0.099 0.022-0.224 0.022-0.538 0-1.544 0.179-2.315 0.411-1.225 0.369-1.944 1.012-1.944 1.732 0 0.255 0.229 0.687 0.474 0.909 0.474 0.428 1.512 0.834 2.627 1.028 0.386 0.070 1.533 0.189 1.788 0.195 0.047 0 0.063 0.25 0.063 1.066 0 0.703 0.026 1.25 0.078 1.585 0.188 1.201 0.771 2.472 1.542 3.371l0.266 0.308-0.177 0.287c-0.26 0.406-0.36 0.714-0.39 1.174-0.079 1.104 0.609 2.083 1.939 2.771 2.532 1.315 6.468 0.801 7.944-1.039 0.719-0.899 0.803-1.926 0.234-2.857l-0.177-0.287 0.318-0.384c0.595-0.714 0.98-1.428 1.272-2.332 0.244-0.768 0.339-1.51 0.339-2.684 0-0.535 0.015-0.979 0.042-0.979 0.24-0.005 1.392-0.13 1.757-0.195 1.121-0.195 2.138-0.595 2.627-1.028 0.245-0.222 0.474-0.655 0.474-0.909 0-0.801-0.813-1.45-2.325-1.84-0.495-0.13-1.428-0.287-1.882-0.314l-0.214-0.017 0.235-0.324c0.292-0.395 0.657-1.163 0.797-1.667 0.396-1.455 0.151-3.149-0.699-4.767-0.354-0.671-0.599-0.828-0.886-0.563-0.109 0.104-0.156 0.244-0.26 0.753-0.323 1.618-0.923 2.9-1.798 3.846l-0.386 0.422h-8.246l-0.344-0.373c-0.854-0.941-1.475-2.272-1.798-3.896-0.104-0.509-0.151-0.649-0.26-0.752-0.172-0.157-0.339-0.152-0.531 0.016zM9.588 7.827c0.276 0.605 0.621 1.174 1.027 1.699l0.323 0.417-0.339 0.254c-0.318 0.243-0.615 0.59-0.845 0.986l-0.099 0.178-0.25-0.34c-0.855-1.18-1.069-2.624-0.615-4.124 0.219-0.724 0.214-0.719 0.412-0.092 0.094 0.303 0.271 0.763 0.386 1.023zM23.156 6.685c0.189 0.524 0.298 1.129 0.298 1.76 0 0.022-0 0.045-0 0.067l0-0.003c0 0.984-0.26 1.818-0.808 2.564l-0.245 0.335-0.182-0.308c-0.236-0.4-0.542-0.733-0.903-0.994l-0.010-0.007c-0.141-0.092-0.25-0.184-0.25-0.195 0-0.016 0.099-0.141 0.224-0.276 0.579-0.644 1.199-1.802 1.507-2.797 0.093-0.308 0.188-0.563 0.203-0.563s0.094 0.19 0.166 0.417zM20.493 10.641c0.579 0.243 1.131 0.941 1.22 1.531 0.047 0.325 0.156 0.531 0.297 0.563 0.063 0.010 0.495 0.049 0.959 0.081 1.647 0.109 2.945 0.46 3.498 0.941 0.255 0.227 0.229 0.417-0.078 0.65-0.615 0.465-1.944 0.817-3.3 0.877-0.897 0.038-1.084 0.064-1.204 0.189-0.089 0.092-0.099 0.189-0.099 1.169 0 1.326-0.068 2.089-0.235 2.705-0.234 0.838-0.698 1.732-1.24 2.365l-0.224 0.26-0.464-0.276c-0.495-0.307-1.069-0.547-1.681-0.69l-0.039-0.008c-1.976-0.471-4.16-0.184-5.629 0.741l-0.339 0.216-0.214-0.254c-0.292-0.341-0.751-1.071-0.933-1.482-0.401-0.931-0.521-1.688-0.521-3.355 0-1.618 0.083-1.499-1.116-1.564-1.533-0.081-2.701-0.357-3.436-0.822-0.542-0.346-0.453-0.655 0.303-1.018 0.724-0.352 1.72-0.563 3.101-0.649 1.074-0.070 1.1-0.086 1.199-0.606 0.146-0.785 0.724-1.434 1.455-1.64 0.182-0.054 1.204-0.065 4.332-0.060l4.092 0.011 0.297 0.125zM17.564 21.841c1.277 0.314 2.231 0.898 2.643 1.623 0.099 0.168 0.141 0.34 0.161 0.606 0.021 0.33 0.006 0.411-0.12 0.682-0.579 1.229-2.705 2.040-4.868 1.856-2.601-0.216-4.311-1.667-3.638-3.090 0.365-0.768 1.6-1.504 2.903-1.72 0.214-0.032 0.428-0.070 0.469-0.081s0.511-0.011 1.043 0c0.724 0.017 1.073 0.049 1.407 0.125z"></path>
<path fill="#131313" style="fill: var(--color3, #131313)" d="M12.393 13.351c-0.323 0.109-0.542 0.25-0.834 0.541-0.256 0.243-0.276 0.53-0.063 0.703 0.198 0.162 0.386 0.141 0.625-0.070 0.303-0.265 0.538-0.374 0.829-0.374 0.292-0.005 0.516 0.098 0.829 0.374 0.239 0.211 0.427 0.232 0.625 0.070 0.104-0.087 0.136-0.157 0.136-0.32 0-0.167-0.036-0.243-0.219-0.427-0.516-0.519-1.283-0.719-1.929-0.498zM18.47 13.345c-0.333 0.125-0.761 0.406-0.932 0.617-0.167 0.206-0.173 0.438 0 0.612 0.172 0.184 0.38 0.173 0.63-0.033 0.615-0.509 1.074-0.525 1.642-0.054 0.146 0.125 0.312 0.222 0.365 0.222 0.255 0 0.464-0.227 0.464-0.498 0-0.173-0.433-0.573-0.824-0.763-0.433-0.211-0.948-0.249-1.345-0.102zM13.149 23.361c-0.151 0.146-0.204 0.356-0.125 0.525 0.058 0.135 0.146 0.189 0.506 0.287 0.162 0.043 0.23 0.097 0.287 0.232 0.073 0.179 0.078 0.179 0.48 0.195l0.401 0.017v-0.152c-0.005-0.216-0.125-0.53-0.282-0.746-0.182-0.25-0.5-0.412-0.86-0.444-0.245-0.021-0.307-0.011-0.406 0.087zM18.127 23.323c-0.26 0.070-0.636 0.422-0.74 0.698-0.052 0.145-0.087 0.313-0.099 0.487l-0 0.006c-0.010 0.232 0.010 0.287 0.136 0.4 0.307 0.271 0.714 0.060 0.714-0.373 0-0.211 0.156-0.357 0.433-0.411 0.292-0.054 0.396-0.173 0.401-0.449 0-0.363-0.323-0.503-0.845-0.357z"></path>
</symbol>
<symbol id="icon-cow" viewBox="0 0 32 32">
<path d="M6.435 0.778c-0.254 0.219-0.98 1.732-1.24 2.558-0.31 1.024-0.415 1.792-0.374 2.851 0.056 1.514 0.437 2.662 1.275 3.861 0.219 0.315 0.395 0.585 0.395 0.607 0 0.015-0.134 0.029-0.303 0.029-0.726 0-2.086 0.241-3.128 0.555-1.655 0.497-2.627 1.367-2.627 2.34 0 0.343 0.31 0.928 0.641 1.228 0.641 0.578 2.043 1.126 3.55 1.389 0.521 0.095 2.071 0.256 2.416 0.264 0.063 0 0.085 0.336 0.085 1.44 0 0.951 0.035 1.689 0.106 2.142 0.253 1.623 1.042 3.342 2.084 4.555l0.36 0.417-0.24 0.387c-0.352 0.548-0.486 0.965-0.528 1.586-0.106 1.492 0.823 2.815 2.621 3.744 3.422 1.776 8.741 1.082 10.735-1.404 0.972-1.214 1.085-2.603 0.317-3.861l-0.24-0.388 0.43-0.519c0.803-0.965 1.324-1.93 1.718-3.152 0.331-1.038 0.458-2.040 0.458-3.626 0-0.724 0.021-1.323 0.056-1.323 0.324-0.008 1.881-0.176 2.374-0.264 1.514-0.263 2.889-0.804 3.55-1.389 0.331-0.3 0.641-0.885 0.641-1.228 0-1.083-1.098-1.96-3.142-2.486-0.669-0.176-1.93-0.387-2.543-0.424l-0.289-0.023 0.317-0.438c0.394-0.534 0.887-1.571 1.078-2.252 0.535-1.967 0.204-4.255-0.944-6.441-0.48-0.905-0.811-1.117-1.198-0.759-0.148 0.138-0.212 0.329-0.352 1.016-0.437 2.186-1.247 3.92-2.43 5.199l-0.521 0.571h-11.144l-0.465-0.505c-1.155-1.271-1.994-3.070-2.43-5.264-0.141-0.688-0.204-0.877-0.352-1.016-0.233-0.212-0.458-0.205-0.718 0.022zM7.336 5.114c0.374 0.819 0.839 1.586 1.387 2.295l0.437 0.563-0.457 0.344c-0.43 0.329-0.831 0.797-1.142 1.33l-0.133 0.242-0.338-0.461c-1.155-1.594-1.444-3.546-0.831-5.571 0.296-0.98 0.289-0.973 0.556-0.125 0.127 0.409 0.367 1.031 0.521 1.382zM25.671 3.571c0.255 0.709 0.403 1.526 0.403 2.378 0 0.030-0 0.060-0.001 0.090l0-0.005c0 1.331-0.352 2.456-1.091 3.465l-0.331 0.453-0.247-0.417c-0.319-0.54-0.732-0.991-1.22-1.344l-0.013-0.009c-0.19-0.124-0.337-0.248-0.337-0.263 0-0.022 0.133-0.19 0.303-0.373 0.782-0.87 1.62-2.435 2.036-3.779 0.126-0.418 0.253-0.761 0.274-0.761s0.127 0.256 0.225 0.562zM22.072 8.916c0.782 0.329 1.528 1.271 1.648 2.069 0.063 0.439 0.211 0.717 0.401 0.761 0.085 0.015 0.669 0.066 1.296 0.109 2.225 0.147 3.979 0.622 4.726 1.272 0.345 0.307 0.31 0.563-0.105 0.878-0.831 0.629-2.627 1.104-4.459 1.185-1.212 0.051-1.465 0.086-1.628 0.255-0.119 0.125-0.133 0.256-0.133 1.579 0 1.792-0.092 2.823-0.317 3.656-0.317 1.133-0.944 2.34-1.676 3.196l-0.303 0.351-0.627-0.373c-0.669-0.415-1.445-0.74-2.272-0.933l-0.053-0.010c-2.67-0.636-5.622-0.248-7.607 1.002l-0.458 0.292-0.289-0.343c-0.394-0.461-1.014-1.448-1.261-2.003-0.542-1.258-0.704-2.282-0.704-4.534 0-2.186 0.112-2.026-1.507-2.113-2.071-0.11-3.65-0.483-4.643-1.111-0.733-0.468-0.612-0.885 0.409-1.375 0.979-0.476 2.324-0.76 4.191-0.877 1.451-0.095 1.486-0.117 1.62-0.819 0.197-1.060 0.979-1.937 1.966-2.216 0.246-0.073 1.627-0.087 5.853-0.080l5.53 0.014 0.401 0.169zM18.113 24.051c1.726 0.424 3.015 1.213 3.572 2.193 0.134 0.227 0.19 0.461 0.218 0.819 0.029 0.446 0.008 0.555-0.162 0.921-0.782 1.661-3.656 2.756-6.579 2.508-3.515-0.292-5.826-2.252-4.917-4.175 0.493-1.038 2.162-2.032 3.923-2.326 0.289-0.043 0.578-0.095 0.634-0.11s0.691-0.015 1.41 0c0.978 0.023 1.45 0.066 1.901 0.169z"></path>
<path d="M11.126 12.579c-0.437 0.147-0.733 0.337-1.127 0.732-0.346 0.329-0.374 0.716-0.085 0.95 0.268 0.219 0.521 0.19 0.845-0.095 0.409-0.359 0.726-0.505 1.121-0.505 0.394-0.007 0.697 0.132 1.119 0.505 0.324 0.285 0.578 0.314 0.846 0.095 0.141-0.118 0.183-0.212 0.183-0.432 0-0.226-0.049-0.329-0.297-0.577-0.697-0.702-1.732-0.972-2.606-0.673zM19.338 12.572c-0.45 0.168-1.028 0.548-1.26 0.833-0.226 0.278-0.233 0.592 0 0.827 0.232 0.248 0.514 0.233 0.852-0.044 0.831-0.688 1.451-0.709 2.219-0.073 0.197 0.169 0.422 0.3 0.493 0.3 0.345 0 0.627-0.307 0.627-0.673 0-0.233-0.585-0.775-1.113-1.031-0.585-0.285-1.282-0.336-1.817-0.138zM12.147 26.106c-0.204 0.197-0.275 0.483-0.169 0.709 0.078 0.183 0.197 0.256 0.683 0.387 0.219 0.058 0.31 0.131 0.387 0.314 0.099 0.242 0.106 0.242 0.649 0.264l0.542 0.022v-0.205c-0.007-0.292-0.169-0.716-0.381-1.008-0.246-0.337-0.676-0.556-1.162-0.6-0.331-0.029-0.415-0.015-0.549 0.118zM18.874 26.054c-0.352 0.095-0.859 0.571-1 0.943-0.070 0.196-0.118 0.423-0.134 0.658l-0 0.008c-0.014 0.314 0.014 0.387 0.183 0.541 0.415 0.365 0.965 0.080 0.965-0.505 0-0.285 0.211-0.483 0.585-0.555 0.394-0.073 0.535-0.233 0.542-0.607 0-0.489-0.437-0.68-1.142-0.483z"></path>
</symbol>
<symbol id="icon-dots" viewBox="0 0 32 32">
<path fill="#84a178" style="fill: var(--color4, #84a178)" d="M5.333 16c0 1.473-1.194 2.667-2.667 2.667s-2.667-1.194-2.667-2.667c0-1.473 1.194-2.667 2.667-2.667s2.667 1.194 2.667 2.667z"></path>
<path fill="#d9d9d9" style="fill: var(--color5, #d9d9d9)" d="M18.667 16c0 1.473-1.194 2.667-2.667 2.667s-2.667-1.194-2.667-2.667c0-1.473 1.194-2.667 2.667-2.667s2.667 1.194 2.667 2.667z"></path>
<path fill="#d9d9d9" style="fill: var(--color5, #d9d9d9)" d="M32 16c0 1.473-1.194 2.667-2.667 2.667s-2.667-1.194-2.667-2.667c0-1.473 1.194-2.667 2.667-2.667s2.667 1.194 2.667 2.667z"></path>
</symbol>
<symbol id="icon-dots-tab" viewBox="0 0 32 32">
<path fill="#d9d9d9" style="fill: var(--color5, #d9d9d9)" d="M18.584 16c0 1.453-1.178 2.63-2.63 2.63s-2.63-1.178-2.63-2.63c0-1.453 1.178-2.63 2.63-2.63s2.63 1.178 2.63 2.63z"></path>
<path fill="#84a178" style="fill: var(--color4, #84a178)" d="M5.26 16c0 1.453-1.178 2.63-2.63 2.63s-2.63-1.178-2.63-2.63c0-1.453 1.178-2.63 2.63-2.63s2.63 1.178 2.63 2.63z"></path>
<path fill="#d9d9d9" style="fill: var(--color5, #d9d9d9)" d="M31.735 16c0 1.453-1.178 2.63-2.63 2.63s-2.63-1.178-2.63-2.63c0-1.453 1.178-2.63 2.63-2.63s2.63 1.178 2.63 2.63z"></path>
</symbol>
<symbol id="icon-facebook-focus" viewBox="0 0 32 32">
<path fill="#f8d24e" style="fill: var(--color2, #f8d24e)" d="M16 32c8.837 0 16-7.163 16-16s-7.163-16-16-16-16 7.163-16 16 7.163 16 16 16z"></path>
<path fill="#fcfcfc" style="fill: var(--color1, #fcfcfc)" d="M20.445 15.982h-2.609v9.618h-3.955v-9.618h-1.881v-3.38h1.881v-2.188c0-1.563 0.739-4.014 3.99-4.014l2.929 0.012v3.282h-2.126c-0.348 0-0.838 0.174-0.838 0.921v1.989h2.955l-0.346 3.377z"></path>
</symbol>
<symbol id="icon-facebook-hover" viewBox="0 0 32 32">
<path fill="#f8d24e" style="fill: var(--color2, #f8d24e)" d="M16 32c8.837 0 16-7.163 16-16s-7.163-16-16-16-16 7.163-16 16 7.163 16 16 16z"></path>
<path fill="#fcfcfc" style="fill: var(--color1, #fcfcfc)" d="M20.446 15.981h-2.61v9.619h-3.956v-9.62h-1.88v-3.38h1.88v-2.187c0-1.565 0.74-4.014 3.99-4.014l2.93 0.012v3.281h-2.125c-0.35 0-0.84 0.176-0.84 0.922v1.99h2.956l-0.345 3.376z"></path>
</symbol>
<symbol id="icon-facebook-mob" viewBox="0 0 32 32">
<path fill="#f8d24e" style="fill: var(--color2, #f8d24e)" d="M16 31.949c8.569 0 15.515-6.948 15.515-15.519s-6.946-15.518-15.515-15.518-15.515 6.947-15.515 15.518c0 8.571 6.946 15.519 15.515 15.519z"></path>
<path fill="#84a178" style="fill: var(--color4, #84a178)" d="M20.311 16.412h-2.531v9.329h-3.836v-9.328h-1.823v-3.28h1.823v-2.122c0-1.517 0.718-3.892 3.869-3.892l2.841 0.012v3.183h-2.061c-0.339 0-0.815 0.17-0.815 0.894v1.93h2.866l-0.335 3.276z"></path>
</symbol>
<symbol id="icon-facebook">
<svg width="11" height="22" ><path d="M9.723 10.98H6.95V21.2H2.748V10.98H.75V7.39h1.998V5.065C2.748 3.403 3.533.8 6.988.8L10.1.813V4.3H7.842c-.37 0-.892.187-.892.98v2.113h3.14l-.367 3.588Z"/></svg>
</symbol>
<symbol id="icon-github-focus" viewBox="0 0 32 32">
<path fill="#f8d24e" style="fill: var(--color2, #f8d24e)" d="M31.35 15.962c0 8.457-6.856 15.313-15.313 15.313s-15.313-6.856-15.313-15.313c0-8.457 6.856-15.313 15.313-15.313s15.313 6.856 15.313 15.313z"></path>
<path fill="#fcfcfc" style="fill: var(--color1, #fcfcfc)" d="M15.602 8.165c-4.523 0-8.235 3.712-8.235 8.235 0 3.86 2.708 7.366 6.305 8.235v-2.725c-0.356 0.078-0.684 0.080-1.047-0.026-0.486-0.144-0.882-0.468-1.176-0.962-0.186-0.315-0.518-0.658-0.864-0.632l-0.085-0.962c0.748-0.064 1.395 0.456 1.779 1.101 0.17 0.287 0.367 0.456 0.619 0.53 0.243 0.072 0.505 0.038 0.81-0.070 0.077-0.61 0.356-0.838 0.568-1.16v-0.001c-2.146-0.32-3-1.458-3.339-2.356-0.45-1.193-0.208-2.682 0.586-3.624 0.016-0.018 0.043-0.066 0.032-0.1-0.364-1.102 0.080-2.012 0.096-2.109 0.421 0.124 0.49-0.126 1.828 0.688l0.232 0.139c0.096 0.058 0.066 0.024 0.162 0.017 0.516-0.146 1.11-0.234 1.723-0.243l0.005-0c0.586 0.008 1.17 0.092 1.752 0.25l0.075 0.008c-0.006-0.002 0.021-0.006 0.066-0.032 1.672-1.013 1.612-0.682 2.060-0.827 0.016 0.096 0.454 1.022 0.094 2.11-0.049 0.15 1.45 1.522 0.619 3.723-0.34 0.899-1.194 2.037-3.339 2.357 0.274 0.419 0.605 0.642 0.603 1.507v3.401c3.597-0.869 6.306-4.376 6.306-8.235 0-4.523-3.712-8.235-8.235-8.235z"></path>
</symbol>
<symbol id="icon-github-hover" viewBox="0 0 32 32">
<path fill="#f8d24e" style="fill: var(--color2, #f8d24e)" d="M32 16c0 8.837-7.163 16-16 16s-16-7.163-16-16c0-8.837 7.163-16 16-16s16 7.163 16 16z"></path>
<path fill="#fcfcfc" style="fill: var(--color1, #fcfcfc)" d="M16.002 6.588c-5.17 0-9.412 4.242-9.412 9.412 0 4.411 3.095 8.418 7.206 9.412v-3.114c-0.408 0.089-0.782 0.092-1.197-0.030-0.556-0.165-1.008-0.535-1.344-1.1-0.214-0.361-0.593-0.752-0.988-0.723l-0.097-1.1c0.855-0.072 1.595 0.522 2.034 1.26 0.195 0.327 0.42 0.52 0.707 0.605 0.279 0.082 0.578 0.042 0.926-0.080 0.088-0.698 0.407-0.96 0.649-1.327-2.452-0.366-3.429-1.667-3.817-2.693-0.513-1.363-0.238-3.066 0.671-4.142 0.018-0.021 0.050-0.076 0.037-0.114-0.417-1.259 0.091-2.3 0.11-2.41 0.48 0.142 0.559-0.143 2.088 0.786l0.265 0.159c0.11 0.066 0.076 0.028 0.186 0.020 0.59-0.167 1.269-0.267 1.97-0.278l0.006-0c0.717 0.011 1.404 0.114 2.058 0.299l-0.056-0.014 0.085 0.008c-0.007 0 0.024-0.005 0.075-0.036 1.911-1.157 1.842-0.779 2.355-0.945 0.018 0.11 0.52 1.168 0.107 2.41-0.056 0.172 1.657 1.74 0.708 4.256-0.388 1.027-1.365 2.328-3.816 2.693v0.001c0.314 0.479 0.691 0.734 0.69 1.722v3.887c4.11-0.994 7.205-5 7.205-9.412 0-5.17-4.242-9.412-9.411-9.412z"></path>
</symbol>
<symbol id="icon-github-mob" viewBox="0 0 32 32">
<path fill="#f8d24e" style="fill: var(--color2, #f8d24e)" d="M31.515 16.43c0 8.571-6.946 15.519-15.515 15.519s-15.515-6.948-15.515-15.519c0-8.571 6.946-15.519 15.515-15.519s15.515 6.948 15.515 15.519z"></path>
<path fill="#84a178" style="fill: var(--color4, #84a178)" d="M16 7.301c-5.013 0-9.127 4.114-9.127 9.129 0 4.278 3.001 8.165 6.988 9.129v-3.020c-0.158 0.040-0.34 0.063-0.526 0.063-0.226 0-0.444-0.034-0.65-0.096l0.016 0.004c-0.539-0.16-0.977-0.52-1.303-1.067-0.207-0.351-0.574-0.73-0.958-0.702l-0.094-1.067c0.829-0.070 1.547 0.506 1.972 1.222 0.189 0.318 0.407 0.504 0.686 0.587 0.271 0.079 0.56 0.042 0.898-0.078 0.085-0.677 0.395-0.931 0.629-1.287-2.378-0.355-3.325-1.616-3.7-2.612-0.498-1.322-0.232-2.973 0.65-4.017 0.017-0.019 0.049-0.074 0.036-0.111-0.403-1.221 0.088-2.23 0.107-2.337 0.465 0.138 0.542-0.139 2.025 0.762l0.257 0.154c0.107 0.064 0.074 0.027 0.18 0.019 0.572-0.162 1.23-0.259 1.91-0.27l0.006-0c0.695 0.011 1.362 0.111 1.996 0.29l-0.055-0.013 0.082 0.008c-0.007 0 0.023-0.005 0.073-0.035 1.853-1.122 1.786-0.755 2.284-0.917 0.017 0.108 0.504 1.135 0.104 2.339-0.053 0.166 1.607 1.687 0.687 4.128-0.376 0.996-1.324 2.257-3.7 2.612 0.305 0.465 0.67 0.712 0.669 1.67v3.77c3.985-0.963 6.987-4.85 6.987-9.129 0-5.013-4.113-9.129-9.126-9.129z"></path>
</symbol>
<symbol id="icon-github" viewBox="0 0 20 20">
<svg width="20" height="20"><path d="M10 0C4.507 0 0 4.507 0 10c0 4.687 3.289 8.945 7.656 10v-3.308a2.446 2.446 0 0 1-1.271-.033c-.591-.174-1.071-.568-1.428-1.168-.227-.383-.63-.8-1.05-.769l-.103-1.167c.909-.078 1.694.554 2.16 1.337.208.349.447.553.753.643.295.088.613.046.983-.085.093-.741.433-1.018.69-1.41-2.605-.388-3.643-1.77-4.055-2.86-.546-1.449-.253-3.258.712-4.402.019-.022.053-.08.04-.12-.443-1.338.096-2.444.116-2.561.511.15.594-.152 2.22.835l.28.169c.118.07.08.03.198.02A8.487 8.487 0 0 1 10 4.828c.71.009 1.42.11 2.127.302l.091.01c-.008-.002.025-.006.08-.039 2.03-1.23 1.957-.828 2.502-1.005.02.118.551 1.242.114 2.562-.06.182 1.76 1.848.751 4.522-.412 1.09-1.45 2.473-4.054 2.861.334.51.735.78.733 1.83V20C16.71 18.945 20 14.687 20 10c0-5.493-4.507-10-10-10Z"/></svg>
</symbol>
<symbol id="icon-ice-cream" viewBox="0 0 32 32">
<path fill="#f8d24e" style="fill: var(--color2, #f8d24e)" d="M23.673 14.685c1.642-4.393-1.758-6.797-4.012-8.377-0.431-0.323-0.862-0.625-1.211-0.901-0.61-0.509-1.069-1.178-1.315-1.943l-0.008-0.030c-0.12-0.37-0.19-0.797-0.19-1.239 0-0.401 0.057-0.788 0.163-1.155l-0.007 0.029c0.011-0.036 0.017-0.078 0.017-0.121 0-0.134-0.058-0.254-0.15-0.336l-0-0c-0.083-0.076-0.194-0.122-0.315-0.122-0.057 0-0.112 0.010-0.162 0.029l0.003-0.001c-0.801 0.317-1.492 0.731-2.102 1.238l0.012-0.010c-0.595 0.454-1.075 1.027-1.411 1.686l-0.013 0.028c-0.321 0.628-0.511 1.37-0.513 2.155v0.001c-0.426 0.333-0.794 0.712-1.105 1.135l-0.011 0.016c-0.517 0.688-0.828 1.556-0.828 2.497 0 0.070 0.002 0.14 0.005 0.21l-0-0.010c-0.673 0.61-1.188 1.383-1.482 2.258l-0.011 0.038c-0.166 0.49-0.262 1.054-0.262 1.641 0 0.383 0.041 0.756 0.118 1.116l-0.006-0.035c-0.274 0.163-0.487 0.411-0.605 0.705-0.065 0.157-0.102 0.339-0.102 0.531 0 0.14 0.020 0.275 0.058 0.402l-0.003-0.010c0.087 0.305 0.273 0.573 0.53 0.762s0.569 0.292 0.89 0.29h0.030v2.497c0 0.254 0.103 0.497 0.284 0.677 0.182 0.179 0.429 0.28 0.686 0.28h0.754l1.23 10.493c0.025 0.234 0.137 0.45 0.315 0.606s0.407 0.243 0.646 0.243h5.111c0.239-0.001 0.469-0.087 0.647-0.244s0.291-0.372 0.319-0.606l1.228-10.493h0.754c0.257 0 0.503-0.101 0.686-0.28 0.175-0.172 0.284-0.411 0.284-0.676v-2.498h0.030c0.001 0 0.001 0 0.002 0 0.404 0 0.77-0.162 1.037-0.424l-0 0c0.275-0.271 0.43-0.64 0.43-1.025 0-0.005 0-0.010 0-0.016 0-0.399-0.165-0.759-0.431-1.016l-0-0-0.013 0.004zM12.611 6.715c0.621 2.298 3.017 3.203 5.202 4.010 0.070 0.043 0.155 0.069 0.246 0.069 0.126 0 0.241-0.049 0.326-0.129l-0 0c0.089-0.085 0.144-0.204 0.144-0.335 0-0.011-0-0.022-0.001-0.033l0 0.001c-0.010-0.142-0.084-0.266-0.193-0.342l-0.001-0.001c-0.053-0.038-0.117-0.066-0.186-0.078l-0.003-0c-2.353-0.879-4.573-1.699-4.741-4.049-0.005-0.070-0.007-0.152-0.007-0.235 0-0.597 0.135-1.162 0.375-1.667l-0.010 0.023c0.286-0.602 0.698-1.102 1.205-1.482l0.010-0.007c0.328-0.269 0.68-0.508 1.051-0.714-0.011 0.132-0.018 0.286-0.018 0.442s0.007 0.31 0.019 0.462l-0.001-0.020c0.054 0.714 0.251 1.37 0.562 1.957l-0.013-0.027c0.326 0.617 0.752 1.137 1.262 1.559l0.009 0.007c0.358 0.302 0.802 0.612 1.293 0.943 1.134 0.803 2.422 1.699 3.241 2.914 0.511 0.718 0.818 1.614 0.818 2.581 0 0.625-0.128 1.22-0.359 1.76l0.011-0.029h-1.905c-3.926 0-8.438-1.070-9.33-4.070-0.084-0.28-0.132-0.603-0.132-0.936 0-0.339 0.050-0.666 0.142-0.974l-0.006 0.024c0.191-0.639 0.543-1.181 1.010-1.598l0.003-0.003-0.022-0.021zM16.145 21.197l1.439 1.419-1.44 1.419-1.439-1.427 1.439-1.41zM19.446 24.923l-1.19 1.173-1.439-1.419 1.44-1.415 1.249 1.227-0.060 0.434zM16.145 28.177l-1.44-1.419 1.44-1.419 1.439 1.419-1.44 1.419zM15.486 24.685l-1.44 1.419-1.198-1.181-0.051-0.425 1.25-1.227 1.439 1.415zM13.383 26.758l-0.289 0.285-0.073-0.646 0.362 0.361zM13.231 28.211l0.815-0.803 1.582 1.571c0.008 0.032 0.018 0.063 0.030 0.094h-2.327l-0.099-0.863zM18.249 27.408l0.814 0.803-0.099 0.85h-2.392l1.677-1.653zM19.196 27.042l-0.289-0.285 0.366-0.361-0.078 0.646zM19.627 23.33l-0.72-0.722 0.914-0.901-0.194 1.623zM18.244 21.962l-1.366-1.342h2.733l-1.366 1.343zM14.042 21.962l-1.366-1.342h2.732l-1.366 1.343zM18.697 31.036h-5.108c-0.016-0.002-0.028-0.014-0.030-0.030l-0-0-0.121-1.020h5.413l-0.117 1.020c-0.002 0.017-0.017 0.030-0.034 0.030-0 0-0 0-0 0h-0.004zM22.649 16.235h-1.5c-0.013-0.001-0.029-0.002-0.044-0.002-0.122 0-0.233 0.046-0.317 0.121l0-0c-0.094 0.085-0.154 0.207-0.154 0.343v0c0 0 0 0 0 0 0 0.136 0.059 0.258 0.154 0.342l0 0c0.083 0.074 0.193 0.12 0.314 0.12 0.016 0 0.033-0.001 0.049-0.002l-0.002 0h0.534v2.498c-0.001 0.009-0.005 0.016-0.011 0.022l-0 0c-0.006 0.005-0.014 0.008-0.022 0.008-0 0-0.001 0-0.001 0h-11.021c-0 0-0.001 0-0.001 0-0.008 0-0.016-0.003-0.022-0.008l0 0c-0.006-0.005-0.010-0.013-0.011-0.022l-0-0v-2.497h8.537c0.12-0.012 0.226-0.067 0.303-0.15l0-0c0.076-0.082 0.122-0.191 0.122-0.311s-0.046-0.23-0.122-0.312l0 0c-0.077-0.083-0.183-0.138-0.301-0.149l-0.002-0h-9.481c-0.014 0.001-0.031 0.002-0.047 0.002-0.139 0-0.266-0.052-0.362-0.139l0.001 0c-0.106-0.096-0.173-0.235-0.174-0.388v-0c0-0 0-0 0-0.001 0-0.154 0.067-0.292 0.173-0.387l0.001-0c0.095-0.086 0.221-0.138 0.36-0.138 0.017 0 0.034 0.001 0.051 0.002l-0.002-0h0.978c0.12-0.012 0.226-0.067 0.303-0.149l0-0c0.075-0.082 0.122-0.191 0.122-0.311s-0.046-0.23-0.122-0.312l0 0c-0.077-0.083-0.182-0.138-0.301-0.15l-0.002-0h-0.862c-0.051-0.253-0.080-0.544-0.080-0.842 0-0.393 0.051-0.775 0.145-1.138l-0.007 0.031c0.174-0.672 0.479-1.257 0.886-1.754l-0.006 0.008c0.302 0.926 1.078 2.192 3.017 3.199 1.823 0.938 4.237 1.419 7.171 1.419h1.724c0.014-0.001 0.031-0.002 0.048-0.002 0.139 0 0.265 0.052 0.361 0.138l-0.001-0c0.106 0.096 0.173 0.235 0.174 0.388v0c0 0 0 0.001 0 0.001 0 0.154-0.067 0.292-0.173 0.387l-0 0c-0.095 0.086-0.221 0.138-0.36 0.138-0.017 0-0.034-0.001-0.051-0.002l0.002 0h0.030z"></path>
</symbol>
<symbol id="icon-logo-desk" viewBox="0 0 32 32">
<path fill="#f8d24e" style="fill: var(--color2, #f8d24e)" d="M16.457 17.082c1.415-3.784-1.515-5.855-3.457-7.217-0.371-0.278-0.742-0.538-1.044-0.776-0.525-0.438-0.921-1.015-1.133-1.674l-0.007-0.026c-0.104-0.319-0.163-0.686-0.163-1.067 0-0.345 0.049-0.679 0.141-0.995l-0.006 0.025c0.009-0.031 0.014-0.067 0.014-0.105 0-0.115-0.050-0.219-0.129-0.29l-0-0c-0.071-0.065-0.167-0.105-0.272-0.105-0.049 0-0.096 0.009-0.14 0.025l0.003-0.001c-0.69 0.273-1.285 0.63-1.811 1.067l0.011-0.009c-0.512 0.391-0.925 0.885-1.215 1.452l-0.011 0.024c-0.277 0.541-0.44 1.18-0.442 1.857v0.001c-0.367 0.287-0.684 0.613-0.952 0.978l-0.010 0.014c-0.445 0.593-0.713 1.341-0.713 2.151 0 0.061 0.002 0.121 0.004 0.181l-0-0.008c-0.58 0.526-1.023 1.192-1.276 1.945l-0.009 0.032c-0.143 0.422-0.226 0.908-0.226 1.414 0 0.33 0.035 0.652 0.102 0.962l-0.005-0.030c-0.236 0.141-0.42 0.354-0.521 0.608-0.056 0.135-0.088 0.292-0.088 0.457 0 0.12 0.017 0.237 0.050 0.347l-0.002-0.009c0.075 0.262 0.235 0.493 0.456 0.657s0.49 0.252 0.767 0.25h0.026v2.151c0 0.219 0.089 0.428 0.245 0.583s0.369 0.241 0.591 0.241h0.65l1.058 9.040c0.022 0.201 0.118 0.387 0.271 0.522s0.351 0.21 0.556 0.21h4.404c0.206-0 0.404-0.075 0.557-0.21s0.251-0.32 0.275-0.522l1.058-9.040h0.65c0.222 0 0.434-0.087 0.591-0.241 0.151-0.148 0.244-0.354 0.245-0.582v-2.152h0.026c0.001 0 0.001 0 0.002 0 0.348 0 0.663-0.139 0.894-0.365l-0 0c0.237-0.234 0.371-0.551 0.371-0.883 0-0.004 0-0.009 0-0.014 0-0.343-0.142-0.654-0.371-0.875l-0-0-0.011 0.003zM6.926 10.216c0.535 1.98 2.599 2.759 4.482 3.455 0.060 0.037 0.134 0.059 0.212 0.059 0.109 0 0.207-0.042 0.281-0.111l-0 0c0.076-0.073 0.124-0.175 0.124-0.289 0-0.010-0-0.019-0.001-0.028l0 0.001c-0.009-0.123-0.072-0.229-0.166-0.295l-0.001-0.001c-0.046-0.033-0.101-0.057-0.16-0.068l-0.003-0c-2.027-0.758-3.939-1.464-4.084-3.488-0.004-0.061-0.006-0.131-0.006-0.203 0-0.514 0.116-1.001 0.324-1.436l-0.009 0.020c0.246-0.518 0.601-0.949 1.038-1.277l0.009-0.006c0.283-0.231 0.586-0.438 0.906-0.615-0.010 0.114-0.015 0.247-0.015 0.381s0.006 0.267 0.017 0.398l-0.001-0.017c0.047 0.615 0.216 1.181 0.484 1.686l-0.011-0.023c0.281 0.531 0.648 0.98 1.087 1.343l0.007 0.006c0.308 0.26 0.691 0.527 1.114 0.812 0.977 0.692 2.087 1.465 2.792 2.511 0.441 0.619 0.704 1.39 0.704 2.223 0 0.538-0.11 1.051-0.309 1.517l0.010-0.025h-1.641c-3.382 0-7.27-0.922-8.038-3.506-0.072-0.242-0.113-0.519-0.113-0.807 0-0.292 0.043-0.573 0.122-0.839l-0.005 0.021c0.164-0.551 0.468-1.018 0.87-1.377l0.003-0.003-0.019-0.018zM9.971 22.693l1.24 1.222-1.241 1.222-1.24-1.23 1.24-1.215zM12.815 25.903l-1.025 1.010-1.24-1.222 1.241-1.219 1.076 1.057-0.052 0.374zM9.971 28.706l-1.241-1.222 1.241-1.222 1.24 1.222-1.241 1.222zM9.403 25.698l-1.241 1.222-1.032-1.018-0.044-0.366 1.077-1.057 1.24 1.219zM7.591 27.484l-0.249 0.245-0.063-0.556 0.312 0.311zM7.46 28.735l0.702-0.692 1.363 1.354c0.007 0.028 0.016 0.054 0.026 0.081h-2.005l-0.086-0.743zM11.783 28.044l0.702 0.692-0.086 0.732h-2.060l1.444-1.424zM12.599 27.729l-0.249-0.245 0.316-0.311-0.067 0.556zM12.971 24.53l-0.62-0.622 0.787-0.776-0.167 1.398zM11.779 23.352l-1.177-1.156h2.354l-1.177 1.157zM8.159 23.352l-1.177-1.156h2.354l-1.177 1.157zM12.169 31.169h-4.4c-0.013-0.002-0.024-0.012-0.026-0.025l-0-0-0.104-0.879h4.664l-0.1 0.879c-0.002 0.015-0.014 0.026-0.029 0.026-0 0-0 0-0 0v0h-0.003zM15.574 18.418h-1.292c-0.011-0.001-0.025-0.002-0.038-0.002-0.105 0-0.201 0.039-0.273 0.104l0-0c-0.081 0.073-0.132 0.178-0.133 0.295v0c0 0 0 0 0 0 0 0.117 0.051 0.223 0.133 0.295l0 0c0.071 0.064 0.166 0.103 0.271 0.103 0.014 0 0.028-0.001 0.042-0.002l-0.002 0h0.46v2.152c-0.001 0.008-0.005 0.014-0.010 0.019l-0 0c-0.005 0.004-0.012 0.007-0.019 0.007-0 0-0.001 0-0.001 0h-9.494c-0 0-0 0-0.001 0-0.007 0-0.014-0.003-0.019-0.007l0 0c-0.005-0.005-0.009-0.011-0.010-0.019v-2.152h7.355c0.104-0.010 0.195-0.058 0.261-0.129l0-0c0.065-0.070 0.105-0.165 0.105-0.268s-0.040-0.198-0.105-0.269l0 0c-0.066-0.071-0.157-0.119-0.259-0.128l-0.002-0h-8.168c-0.012 0.001-0.026 0.002-0.041 0.002-0.12 0-0.229-0.045-0.312-0.119l0 0c-0.092-0.083-0.149-0.202-0.15-0.335v-0c0-0 0-0 0-0.001 0-0.133 0.058-0.252 0.149-0.334l0-0c0.082-0.074 0.191-0.119 0.31-0.119 0.015 0 0.029 0.001 0.044 0.002l-0.002-0h0.843c0.104-0.010 0.195-0.058 0.261-0.129l0-0c0.065-0.070 0.105-0.165 0.105-0.268s-0.040-0.198-0.105-0.269l0 0c-0.066-0.071-0.157-0.119-0.259-0.129l-0.002-0h-0.742c-0.044-0.218-0.069-0.469-0.069-0.726 0-0.339 0.044-0.667 0.125-0.981l-0.006 0.027c0.15-0.579 0.412-1.083 0.764-1.511l-0.005 0.007c0.26 0.798 0.928 1.889 2.599 2.756 1.57 0.808 3.65 1.222 6.178 1.222h1.485c0.012-0.001 0.027-0.002 0.041-0.002 0.12 0 0.229 0.045 0.311 0.119l-0-0c0.092 0.083 0.149 0.202 0.15 0.335v0c0 0 0 0.001 0 0.001 0 0.133-0.058 0.252-0.149 0.334l-0 0c-0.082 0.074-0.191 0.119-0.31 0.119-0.015 0-0.029-0.001-0.044-0.002l0.002 0h0.026z"></path>
<path fill="#f8d24e" style="fill: var(--color2, #f8d24e)" d="M18.195 29.152l-0.293 0.448 0.006 0.004 0.287-0.453zM21.344 29.304l0.535-0.012-0.014-0.62-0.611 0.104 0.090 0.528zM21.38 30.951l0.136 0.518 0.409-0.108-0.010-0.422-0.535 0.012zM17.248 31.030l0.121-0.522-0.003-0.001-0.117 0.523zM15.208 30.119l0.347-0.409h-0.001l-0.346 0.409zM14.471 28.446l0.536 0.003v-0.003h-0.536zM14.727 27.274l-0.48-0.236v0.001l0.48 0.235zM16.369 25.872l0.19 0.501 0.002-0.001-0.192-0.5zM21.631 25.736l0.534 0.041 0.035-0.452-0.44-0.109-0.129 0.52zM21.501 27.415l-0.099 0.526 0.587 0.111 0.046-0.596-0.534-0.042zM20.073 26.728c-0.804 0-1.48 0.086-1.973 0.303-0.253 0.111-0.483 0.268-0.651 0.489-0.159 0.209-0.255 0.473-0.255 0.76 0 0.005 0 0.010 0 0.015v-0.001h1.071c-0-0.004-0-0.008-0-0.013 0-0.043 0.014-0.083 0.038-0.115l-0 0c0.028-0.037 0.091-0.095 0.228-0.156 0.288-0.127 0.783-0.212 1.542-0.212v-1.072zM17.194 28.294c0 0.551 0.247 1.006 0.709 1.307l0.585-0.897c-0.16-0.103-0.223-0.221-0.223-0.409h-1.071zM17.908 29.604c0.438 0.277 1.015 0.381 1.663 0.381v-1.071c-0.559 0-0.899-0.095-1.089-0.215l-0.574 0.905zM19.571 29.985c0.635 0 1.256-0.051 1.863-0.154l-0.179-1.056c-0.5 0.088-1.077 0.139-1.665 0.139-0.007 0-0.013 0-0.020-0h0.001v1.071zM20.808 29.315l0.036 1.648 1.071-0.024-0.037-1.647-1.071 0.024zM21.244 30.433c-0.612 0.161-1.288 0.244-2.029 0.244v1.071c0.821 0 1.589-0.092 2.302-0.279l-0.273-1.036zM19.215 30.677c-0.757 0-1.369-0.060-1.846-0.169l-0.241 1.044c0.582 0.134 1.281 0.197 2.087 0.197v-1.071zM17.365 30.507c-0.512-0.114-0.881-0.236-1.127-0.356l-0.47 0.962c0.353 0.172 0.814 0.316 1.363 0.439l0.234-1.046zM16.238 30.151c-0.26-0.126-0.485-0.273-0.688-0.444l0.005 0.004-0.693 0.817c0.263 0.222 0.561 0.417 0.881 0.574l0.026 0.011 0.47-0.962zM15.554 29.71c-0.364-0.308-0.55-0.709-0.547-1.262l-1.071-0.005c-0.004 0.842 0.301 1.556 0.927 2.085l0.692-0.818zM15.007 28.446c0-0.36 0.070-0.669 0.202-0.936l-0.962-0.471c-0.211 0.43-0.311 0.902-0.311 1.407h1.071zM15.208 27.51c0.243-0.495 0.673-0.88 1.351-1.137l-0.38-1.002c-0.884 0.336-1.549 0.886-1.933 1.666l0.961 0.473zM16.562 26.372c0.712-0.273 1.507-0.414 2.392-0.414v-1.071c-0.999 0-1.926 0.159-2.776 0.485l0.384 1zM18.953 25.958c0.901 0 1.751 0.1 2.549 0.298l0.258-1.040c-0.89-0.221-1.826-0.33-2.807-0.33v1.071zM21.097 25.695l-0.13 1.679 1.068 0.084 0.131-1.679-1.068-0.083zM21.601 26.889c-0.557-0.105-1.068-0.161-1.528-0.161v1.071c0.377 0 0.818 0.046 1.328 0.142l0.199-1.053zM26.827 27.744l-0.003 0.536 0.544 0.003-0.005-0.544-0.536 0.005zM26.596 27.049l-0.364 0.393 0.005 0.004 0.359-0.397zM25.262 27.102l0.371 0.386 0.004-0.004-0.375-0.383zM24.938 27.734l-0.529-0.087-0.101 0.619 0.627 0.003 0.003-0.536zM28.877 30.59l0.324 0.427 0.192-0.146 0.018-0.241-0.534-0.039zM27.721 31.019l-0.115-0.523-0.003 0 0.118 0.523zM23.704 30.873l-0.182 0.504 0.004 0.001 0.178-0.505zM22.788 30.386l-0.332 0.42 0.003 0.002 0.003 0.002 0.326-0.425zM22.177 29.617l-0.48 0.237 0.001 0.002 0.479-0.24zM22.804 26.369v0zM27.7 25.788l0.214-0.49-0.005-0.002-0.209 0.493zM28.929 26.918l-0.482 0.234 0.001 0.003 0.48-0.237zM29.139 27.855l0.534 0.038 0.001-0.019v-0.020h-0.536zM29.076 28.718l-0.002 0.536 0.501 0.002 0.036-0.499-0.534-0.039zM24.833 28.697l0.003-0.536-0.699-0.003 0.178 0.676 0.518-0.137zM25.441 29.445l-0.263 0.466 0.002 0.001 0.261-0.468zM28.694 29.262v-0.536h-0.107l-0.098 0.041 0.206 0.495zM28.976 29.262l0.534 0.039 0.043-0.575h-0.577v0.536zM27.362 27.739c-0.004-0.387-0.094-0.803-0.406-1.087l-0.72 0.794c-0.006-0.005 0.006 0.001 0.021 0.047 0.016 0.049 0.032 0.131 0.033 0.257l1.071-0.011zM26.961 26.657c-0.281-0.261-0.65-0.347-1.013-0.347v1.071c0.208 0 0.272 0.050 0.284 0.061l0.729-0.785zM25.948 26.309c-0.399 0-0.77 0.125-1.060 0.409l0.75 0.766c0.059-0.058 0.144-0.103 0.31-0.103v-1.072zM24.892 26.715c-0.251 0.242-0.425 0.563-0.481 0.923l-0.001 0.009 1.057 0.174c0.025-0.149 0.081-0.252 0.166-0.334l-0.742-0.773zM24.935 28.27l1.889 0.010 0.006-1.071-1.889-0.011-0.006 1.071zM28.554 30.163c-0.118 0.089-0.404 0.213-0.948 0.333l0.23 1.046c0.565-0.125 1.050-0.287 1.365-0.525l-0.647-0.854zM27.603 30.497c-0.449 0.109-0.965 0.173-1.496 0.175h-0.002v1.071c0.566 0 1.145-0.068 1.735-0.202l-0.236-1.045zM26.105 30.672c-0.505 0-0.921-0.024-1.252-0.068l-0.143 1.062c0.394 0.053 0.861 0.078 1.395 0.078v-1.071zM24.853 30.603c-0.364-0.050-0.692-0.133-1.004-0.247l0.034 0.011-0.357 1.010c0.389 0.138 0.784 0.233 1.184 0.288l0.143-1.062zM23.887 30.369c-0.314-0.113-0.568-0.251-0.772-0.408l-0.652 0.85c0.305 0.234 0.661 0.42 1.058 0.565l0.365-1.007zM23.121 29.966c-0.194-0.158-0.351-0.354-0.461-0.578l-0.004-0.010-0.958 0.479c0.186 0.377 0.442 0.694 0.753 0.945l0.005 0.004 0.666-0.84zM22.657 29.38c-0.113-0.228-0.18-0.521-0.18-0.897h-1.071c0 0.502 0.090 0.965 0.29 1.372l0.96-0.475zM22.477 28.482c0-0.377 0.068-0.71 0.196-1.006l-0.983-0.426c-0.192 0.443-0.285 0.923-0.285 1.432h1.071zM22.673 27.477c0.135-0.311 0.3-0.542 0.487-0.707l-0.713-0.8c-0.322 0.287-0.572 0.653-0.757 1.082l0.983 0.426zM23.161 26.769c0.576-0.513 1.454-0.811 2.719-0.811v-1.071c-1.419 0-2.591 0.333-3.432 1.083l0.713 0.799zM25.88 25.958c0.568 0 1.104 0.108 1.611 0.323l0.418-0.986c-0.593-0.258-1.284-0.409-2.010-0.409-0.007 0-0.014 0-0.021 0h0.001v1.071zM27.486 26.279c0.474 0.207 0.78 0.5 0.961 0.873l0.963-0.468c-0.307-0.632-0.82-1.092-1.497-1.387l-0.428 0.982zM28.449 27.156c0.1 0.202 0.154 0.432 0.154 0.699h1.071c0-0.417-0.086-0.811-0.265-1.174l-0.96 0.474zM28.605 27.815l-0.063 0.863 1.068 0.078 0.063-0.863-1.068-0.077zM29.079 28.182l-4.242-0.021-0.005 1.071 4.242 0.021 0.005-1.071zM24.316 28.833c0.126 0.475 0.432 0.834 0.862 1.078l0.527-0.933c-0.212-0.12-0.31-0.258-0.352-0.418l-1.036 0.274zM25.179 29.912c0.434 0.243 0.978 0.34 1.585 0.34v-1.071c-0.509 0-0.848-0.084-1.062-0.204l-0.523 0.935zM26.764 30.252c0.651 0 1.367-0.176 2.136-0.496l-0.412-0.989c-0.688 0.287-1.26 0.414-1.724 0.414v1.071zM28.694 29.797h0.283v-1.071h-0.282v1.071zM28.443 29.221l-0.1 1.329 1.068 0.080 0.099-1.329-1.068-0.080z"></path>
</symbol>
<symbol id="icon-logo-mob" viewBox="0 0 32 32">
<path fill="#f8d24e" style="fill: var(--color2, #f8d24e)" d="M16.112 14.248c1.513-4.047-1.62-6.262-3.696-7.717-0.396-0.297-0.794-0.575-1.116-0.83-0.562-0.469-0.985-1.085-1.212-1.79l-0.008-0.027c-0.111-0.341-0.175-0.734-0.175-1.142 0-0.369 0.052-0.726 0.15-1.064l-0.007 0.027c0.010-0.034 0.015-0.072 0.015-0.112 0-0.123-0.053-0.233-0.138-0.309l-0-0c-0.076-0.070-0.179-0.113-0.291-0.113-0.052 0-0.103 0.009-0.149 0.027l0.003-0.001c-0.738 0.292-1.374 0.673-1.937 1.141l0.011-0.009c-0.548 0.418-0.99 0.946-1.299 1.553l-0.012 0.026c-0.296 0.579-0.47 1.263-0.471 1.987v0c-0.392 0.304-0.738 0.661-1.028 1.060-0.476 0.634-0.763 1.434-0.763 2.301 0 0.065 0.002 0.129 0.005 0.193l-0-0.009c-0.62 0.562-1.094 1.275-1.364 2.080l-0.010 0.035c-0.153 0.451-0.241 0.971-0.241 1.512 0 0.352 0.038 0.696 0.109 1.027l-0.006-0.032c-0.251 0.151-0.444 0.374-0.554 0.641l-0.003 0.009c-0.109 0.271-0.125 0.57-0.044 0.851 0.080 0.279 0.251 0.527 0.488 0.702s0.524 0.269 0.82 0.267h0.028v2.301c0 0.234 0.094 0.458 0.261 0.623s0.395 0.258 0.632 0.258h0.695l1.132 9.667c0.023 0.215 0.126 0.414 0.29 0.559s0.375 0.224 0.595 0.224h4.709c0.219 0 0.432-0.080 0.595-0.225s0.268-0.343 0.293-0.558l1.132-9.666h0.695c0.237 0 0.464-0.094 0.632-0.258 0.161-0.159 0.261-0.379 0.261-0.623 0-0 0-0 0-0v0-2.301h0.027c0.359 0 0.704-0.14 0.958-0.39s0.396-0.59 0.396-0.944c0-0.004 0-0.009 0-0.014 0-0.367-0.152-0.699-0.397-0.936l-0-0-0.012 0.004zM5.921 6.906c0.572 2.117 2.779 2.95 4.792 3.695 0.064 0.040 0.143 0.063 0.226 0.063 0.182 0 0.339-0.112 0.403-0.271l0.001-0.003c0.018-0.046 0.029-0.099 0.029-0.154 0-0.143-0.071-0.268-0.179-0.345l-0.001-0.001c-0.049-0.035-0.107-0.060-0.171-0.072l-0.003-0c-2.168-0.811-4.213-1.566-4.368-3.73-0.004-0.065-0.007-0.14-0.007-0.216 0-0.55 0.124-1.071 0.346-1.536l-0.009 0.022c0.263-0.555 0.643-1.016 1.11-1.367l0.009-0.007c0.302-0.247 0.626-0.467 0.969-0.656-0.011 0.122-0.017 0.264-0.017 0.407s0.006 0.285 0.018 0.425l-0.001-0.018c0.046 0.62 0.219 1.225 0.506 1.778 0.3 0.568 0.692 1.048 1.162 1.436l0.008 0.006c0.329 0.278 0.738 0.564 1.191 0.869 1.044 0.74 2.231 1.566 2.985 2.685 0.471 0.662 0.753 1.487 0.753 2.377 0 0.576-0.118 1.124-0.331 1.622l0.010-0.027h-1.755c-3.617 0-7.774-0.987-8.595-3.749-0.077-0.258-0.121-0.555-0.121-0.862 0-0.312 0.046-0.614 0.131-0.898l-0.006 0.022c0.176-0.589 0.5-1.088 0.93-1.472l0.003-0.003-0.020-0.019zM9.176 20.247l1.327 1.307-1.327 1.307-1.326-1.315 1.327-1.299zM12.218 23.679l-1.096 1.080-1.327-1.307 1.327-1.303 1.151 1.132-0.055 0.399zM9.176 26.677l-1.326-1.307 1.327-1.307 1.325 1.307-1.326 1.307zM8.569 23.46l-1.326 1.307-1.104-1.087-0.048-0.391 1.151-1.132 1.326 1.303zM6.632 25.37l-0.266 0.262-0.068-0.595 0.334 0.332zM6.493 26.708l0.75-0.74 1.457 1.449c0.008 0.029 0.016 0.058 0.027 0.086h-2.143l-0.091-0.795zM11.113 25.968l0.751 0.74-0.091 0.783h-2.203l1.545-1.522zM11.988 25.633l-0.266-0.263 0.337-0.332-0.071 0.595zM12.384 22.212l-0.663-0.666 0.841-0.83-0.179 1.495zM11.11 20.951l-1.259-1.236h2.517l-1.258 1.236zM7.239 20.951l-1.259-1.236h2.517l-1.258 1.236zM11.527 29.31h-4.706c-0.015-0.002-0.026-0.013-0.028-0.027l-0-0-0.111-0.939h4.987l-0.107 0.939c-0.001 0.008-0.005 0.015-0.011 0.020l-0 0c-0.006 0.005-0.013 0.008-0.021 0.008-0 0-0 0-0 0v0h-0.004zM15.167 15.676h-1.381c-0.012-0.001-0.026-0.002-0.041-0.002-0.112 0-0.215 0.042-0.292 0.112l0-0c-0.086 0.078-0.141 0.191-0.141 0.316 0 0.062 0.013 0.121 0.037 0.174l-0.001-0.003c0.050 0.11 0.143 0.194 0.256 0.232l0.003 0.001c0.041 0.014 0.087 0.022 0.136 0.022 0.015 0 0.030-0.001 0.044-0.002l-0.002 0h0.492v2.302c-0.002 0.015-0.015 0.027-0.031 0.027-0 0-0 0-0 0v0h-10.153c-0 0-0 0-0 0-0.016 0-0.029-0.012-0.031-0.027l-0-0v-2.302h7.864c0.111-0.010 0.209-0.061 0.279-0.137l0-0c0.069-0.075 0.112-0.176 0.112-0.287s-0.043-0.212-0.112-0.287l0 0c-0.071-0.076-0.168-0.127-0.277-0.138l-0.002-0h-8.735c-0.013 0.001-0.028 0.002-0.044 0.002-0.128 0-0.245-0.048-0.333-0.127l0 0c-0.098-0.089-0.16-0.217-0.16-0.359v-0c0 0 0-0 0-0 0-0.142 0.062-0.269 0.16-0.357l0-0c0.087-0.079 0.204-0.127 0.331-0.127 0.016 0 0.032 0.001 0.047 0.002l-0.002-0h0.901c0.111-0.011 0.208-0.062 0.278-0.138l0-0c0.069-0.075 0.112-0.176 0.112-0.287s-0.043-0.212-0.112-0.287l0 0c-0.071-0.076-0.168-0.127-0.277-0.137l-0.002-0h-0.792c-0.047-0.233-0.073-0.501-0.073-0.776 0-0.363 0.047-0.715 0.134-1.050l-0.006 0.029c0.161-0.619 0.441-1.158 0.817-1.615l-0.006 0.007c0.278 0.852 0.992 2.018 2.779 2.946 1.68 0.865 3.902 1.307 6.607 1.307h1.588c0.013-0.001 0.028-0.002 0.044-0.002 0.128 0 0.245 0.048 0.333 0.127l-0-0c0.098 0.089 0.16 0.217 0.16 0.359v0c0 0 0 0.001 0 0.001 0 0.142-0.062 0.269-0.16 0.357l-0 0c-0.087 0.079-0.203 0.127-0.331 0.127-0.016 0-0.032-0.001-0.047-0.002l0.002 0h0.027zM18.405 27.485l-0.317 0.486 0.007 0.004 0.311-0.49zM21.818 27.649l0.581-0.012-0.016-0.671-0.662 0.112 0.098 0.572zM21.858 29.435l0.148 0.562 0.443-0.117-0.010-0.457-0.581 0.012zM17.38 29.52l0.13-0.567h-0.004l-0.126 0.566zM15.17 28.534v0zM14.37 26.719l0.58 0.003v-0.003h-0.58zM14.647 25.45l-0.521-0.257v0.002l0.521 0.255zM16.427 23.931l0.207 0.543 0.002-0.001-0.208-0.542zM22.13 23.783l0.578 0.045 0.039-0.49-0.478-0.118-0.14 0.563zM21.988 25.603l-0.108 0.57 0.636 0.121 0.051-0.646-0.579-0.044zM20.441 24.859c-0.871 0-1.604 0.093-2.139 0.328-0.274 0.12-0.523 0.29-0.705 0.53-0.173 0.226-0.277 0.513-0.277 0.825 0 0.005 0 0.010 0 0.015v-0.001h1.161c0-0.068 0.016-0.106 0.041-0.138 0.030-0.039 0.098-0.102 0.247-0.168 0.312-0.137 0.849-0.23 1.67-0.23v-1.161zM17.321 26.555c0 0.597 0.268 1.090 0.769 1.416l0.633-0.973c-0.172-0.112-0.24-0.24-0.24-0.443h-1.161zM18.096 27.976c0.474 0.3 1.1 0.413 1.801 0.413v-1.161c-0.606 0-0.975-0.102-1.181-0.233l-0.62 0.98zM19.897 28.389c0.688 0 1.361-0.056 2.018-0.167l-0.194-1.145c-0.542 0.096-1.167 0.151-1.804 0.151-0.007 0-0.014 0-0.021-0h0.001v1.161zM21.238 27.662l0.039 1.786 1.161-0.026-0.040-1.786-1.161 0.026zM21.71 28.873c-0.663 0.175-1.395 0.265-2.199 0.265v1.161c0.89 0 1.722-0.099 2.494-0.303l-0.296-1.122zM19.512 29.138c-0.82 0-1.483-0.065-2.001-0.184l-0.261 1.132c0.631 0.145 1.389 0.213 2.262 0.213v-1.161zM17.507 28.953c-0.554-0.123-0.954-0.255-1.221-0.386l-0.51 1.043c0.383 0.187 0.882 0.343 1.477 0.476l0.253-1.133zM16.286 28.567c-0.283-0.137-0.526-0.295-0.747-0.481l0.005 0.004-0.751 0.885c0.29 0.246 0.619 0.457 0.983 0.634l0.509-1.043zM15.545 28.091c-0.395-0.334-0.597-0.77-0.593-1.368l-1.161-0.005c-0.005 0.913 0.326 1.686 1.005 2.259l0.749-0.887zM14.952 26.719c0-0.39 0.076-0.724 0.219-1.015l-1.043-0.51c-0.213 0.434-0.337 0.944-0.337 1.483 0 0.015 0 0.030 0 0.045l-0-0.002h1.161zM15.17 25.706c0.264-0.537 0.731-0.954 1.465-1.233l-0.412-1.085c-0.958 0.364-1.678 0.96-2.095 1.805l1.042 0.513zM16.637 24.473c0.772-0.297 1.634-0.45 2.591-0.45v-1.161c-1.083 0-2.087 0.172-3.008 0.526l0.417 1.084zM19.228 24.023c0.977 0 1.897 0.109 2.763 0.323l0.279-1.126c-0.895-0.227-1.923-0.358-2.981-0.358-0.021 0-0.043 0-0.064 0h0.003v1.161zM21.552 23.739l-0.141 1.819 1.157 0.091 0.141-1.82-1.157-0.090zM22.097 25.033c-0.494-0.104-1.065-0.167-1.649-0.175l-0.006-0v1.161c0.408 0 0.887 0.049 1.439 0.154l0.216-1.14zM27.76 25.96l-0.003 0.581 0.59 0.003-0.006-0.59-0.581 0.006zM27.511 25.206l-0.395 0.425 0.005 0.005 0.39-0.429zM26.066 25.263l0.402 0.419 0.004-0.005-0.406-0.414zM25.715 25.949l-0.573-0.094-0.111 0.67 0.68 0.004 0.003-0.581zM29.982 29.044l0.351 0.463 0.208-0.158 0.020-0.261-0.579-0.044zM28.73 29.509l-0.125-0.567-0.003 0.001 0.128 0.567zM24.376 29.349l-0.197 0.546 0.005 0.002 0.193-0.548zM23.385 28.823l-0.361 0.455 0.007 0.005 0.353-0.46zM22.722 27.989l-0.521 0.258 0.002 0.002 0.519-0.26zM23.401 24.469v0zM28.707 23.84l0.232-0.532-0.005-0.002-0.226 0.535zM30.039 25.065l-0.521 0.254 0.002 0.003 0.52-0.258zM30.266 26.079l0.579 0.042 0.002-0.021v-0.021h-0.581zM30.198 27.014l-0.003 0.581 0.542 0.002 0.039-0.541-0.578-0.042zM25.601 26.992l0.003-0.581-0.757-0.003 0.193 0.732 0.561-0.148zM26.259 27.803l-0.286 0.505 0.002 0.002 0.283-0.507zM29.784 27.604v-0.58h-0.116l-0.107 0.044 0.223 0.535zM30.090 27.604l0.579 0.044 0.047-0.624h-0.626v0.581zM28.341 25.954c-0.005-0.42-0.101-0.87-0.44-1.178l-0.78 0.86c-0.006-0.006 0.008 0.002 0.023 0.052 0.018 0.053 0.034 0.142 0.036 0.279l1.161-0.012zM27.906 24.78c-0.304-0.283-0.705-0.376-1.098-0.376v1.161c0.226 0 0.295 0.055 0.308 0.066l0.79-0.851zM26.808 24.404c-0.432 0-0.834 0.136-1.149 0.444l0.813 0.829c0.063-0.062 0.156-0.112 0.336-0.112v-1.161zM25.663 24.844c-0.272 0.263-0.46 0.611-0.521 1.001l-0.001 0.010 1.146 0.188c0.019-0.143 0.085-0.268 0.181-0.361l0-0-0.804-0.837zM25.711 26.53l2.046 0.011 0.006-1.161-2.046-0.012-0.006 1.161zM29.632 28.581c-0.127 0.096-0.438 0.23-1.027 0.36l0.25 1.134c0.613-0.135 1.137-0.311 1.478-0.57l-0.701-0.924zM28.602 28.942c-0.487 0.118-1.046 0.187-1.622 0.19h-0.002v1.161c0.613 0 1.241-0.074 1.879-0.219l-0.256-1.132zM26.978 29.132c-0.547 0-0.997-0.026-1.357-0.074l-0.155 1.15c0.427 0.058 0.933 0.085 1.512 0.085v-1.161zM25.622 29.058c-0.353-0.047-0.702-0.133-1.052-0.255l-0.386 1.095c0.421 0.148 0.85 0.253 1.283 0.311l0.155-1.15zM24.574 28.804c-0.32-0.112-0.597-0.262-0.845-0.448l0.008 0.006-0.706 0.921c0.33 0.254 0.716 0.456 1.147 0.612l0.396-1.091zM23.745 28.367c-0.211-0.171-0.381-0.384-0.499-0.626l-0.005-0.011-1.038 0.519c0.204 0.409 0.476 0.756 0.822 1.029l0.72-0.91zM23.241 27.732c-0.122-0.247-0.195-0.565-0.195-0.973h-1.161c0 0.545 0.098 1.047 0.315 1.488l1.040-0.515zM23.046 26.759c0-0.408 0.074-0.769 0.213-1.090l-1.065-0.462c-0.195 0.447-0.309 0.967-0.309 1.514 0 0.013 0 0.026 0 0.040l-0-0.002h1.161zM23.259 25.669c0.147-0.337 0.325-0.586 0.528-0.766l-0.773-0.867c-0.349 0.311-0.619 0.708-0.82 1.171l1.065 0.462zM23.788 24.902c0.624-0.556 1.576-0.878 2.946-0.878v-1.161c-1.538 0-2.808 0.361-3.719 1.173l0.773 0.866zM26.734 24.024c0.616 0 1.196 0.117 1.746 0.35l0.453-1.069c-0.643-0.28-1.391-0.443-2.178-0.443-0.008 0-0.015 0-0.023 0h0.001v1.161zM28.475 24.372c0.514 0.224 0.846 0.542 1.043 0.946l1.044-0.507c-0.332-0.684-0.888-1.182-1.622-1.503l-0.464 1.065zM29.519 25.321c0.108 0.219 0.166 0.468 0.166 0.757h1.161c0-0.451-0.094-0.878-0.287-1.271l-1.040 0.514zM29.687 26.037l-0.068 0.935 1.158 0.084 0.068-0.935-1.158-0.084zM30.201 26.434l-4.597-0.023-0.006 1.161 4.597 0.023 0.006-1.161zM25.040 27.14c0.136 0.514 0.468 0.905 0.933 1.168l0.571-1.011c-0.229-0.13-0.336-0.28-0.382-0.453l-1.122 0.296zM25.975 28.309c0.471 0.263 1.060 0.368 1.717 0.368v-1.161c-0.551 0-0.918-0.091-1.15-0.222l-0.567 1.014zM27.692 28.677c0.706 0 1.482-0.191 2.316-0.538l-0.446-1.072c-0.746 0.311-1.366 0.449-1.869 0.449v1.161zM29.783 28.184h0.307v-1.161h-0.306v1.161zM29.511 27.561l-0.108 1.44 1.158 0.086 0.108-1.439-1.158-0.087z"></path>
</symbol>
<symbol id="icon-logo-tab" viewBox="0 0 32 32">
<path fill="#f8d24e" style="fill: var(--color2, #f8d24e)" d="M16.324 14.283c1.533-4.111-1.641-6.36-3.745-7.84-0.402-0.301-0.804-0.584-1.13-0.842-0.569-0.476-0.999-1.103-1.228-1.818l-0.008-0.028c-0.112-0.347-0.177-0.745-0.177-1.159 0-0.375 0.053-0.738 0.152-1.081l-0.007 0.027c0.010-0.034 0.015-0.073 0.015-0.113 0-0.125-0.054-0.237-0.14-0.315l-0-0c-0.077-0.071-0.181-0.114-0.294-0.114-0.053 0-0.104 0.010-0.151 0.027l0.003-0.001c-0.708 0.277-1.367 0.665-1.951 1.149-0.555 0.425-1.003 0.961-1.316 1.577l-0.012 0.026c-0.3 0.588-0.476 1.282-0.478 2.017v0.001c-0.398 0.312-0.741 0.666-1.032 1.062l-0.010 0.015c-0.482 0.644-0.772 1.456-0.772 2.336 0 0.066 0.002 0.132 0.005 0.197l-0-0.009c-0.629 0.571-1.109 1.295-1.383 2.113l-0.010 0.035c-0.155 0.458-0.244 0.986-0.244 1.534 0 0.358 0.038 0.708 0.111 1.045l-0.006-0.033c-0.256 0.153-0.455 0.385-0.565 0.66-0.060 0.147-0.096 0.318-0.096 0.496 0 0.131 0.019 0.258 0.054 0.377l-0.002-0.009c0.081 0.285 0.255 0.535 0.494 0.713s0.531 0.273 0.831 0.271h0.028v2.337c0 0.237 0.095 0.465 0.265 0.633s0.4 0.262 0.64 0.262h0.704l1.147 9.819c0.023 0.219 0.128 0.421 0.293 0.567 0.167 0.147 0.381 0.228 0.603 0.228h4.771c0.223-0.001 0.437-0.082 0.603-0.229s0.272-0.348 0.297-0.567l1.147-9.819h0.704c0.24 0 0.47-0.094 0.64-0.262s0.265-0.395 0.265-0.633v-2.337h0.029c0 0 0 0 0 0 0.378 0 0.72-0.152 0.969-0.398l-0 0c0.257-0.253 0.402-0.599 0.402-0.958 0-0.005 0-0.010 0-0.016 0-0.373-0.154-0.71-0.402-0.95l-0-0-0.012 0.005zM5.999 6.825c0.58 2.151 2.816 2.997 4.855 3.753 0.065 0.040 0.144 0.064 0.229 0.064 0.185 0 0.343-0.113 0.409-0.274l0.001-0.003c0.019-0.046 0.030-0.1 0.030-0.156 0-0.145-0.072-0.273-0.182-0.351l-0.001-0.001c-0.050-0.036-0.109-0.062-0.173-0.074l-0.003-0c-2.196-0.823-4.267-1.59-4.425-3.789-0.004-0.066-0.007-0.142-0.007-0.219 0-0.559 0.126-1.088 0.351-1.561l-0.009 0.022c0.266-0.563 0.651-1.031 1.124-1.387l0.009-0.007c0.288-0.238 0.609-0.459 0.949-0.651l0.033-0.017c-0.011 0.124-0.017 0.268-0.017 0.413s0.006 0.29 0.018 0.432l-0.001-0.019c0.047 0.63 0.221 1.244 0.513 1.807 0.304 0.577 0.701 1.064 1.177 1.459l0.008 0.006c0.333 0.282 0.748 0.572 1.207 0.882 1.058 0.751 2.261 1.59 3.025 2.727 0.477 0.673 0.763 1.511 0.763 2.415 0 0.584-0.119 1.141-0.335 1.647l0.010-0.027h-1.778c-3.664 0.001-7.875-1.001-8.708-3.807-0.078-0.263-0.123-0.565-0.123-0.877 0-0.317 0.046-0.623 0.132-0.911l-0.006 0.023c0.178-0.598 0.507-1.105 0.942-1.495l0.003-0.003-0.020-0.020zM9.297 20.377l1.343 1.327-1.343 1.328-1.343-1.336 1.343-1.32zM12.379 23.864l-1.111 1.097-1.343-1.328 1.343-1.323 1.167 1.149-0.056 0.405zM9.297 26.909l-1.344-1.329 1.343-1.328 1.343 1.328-1.343 1.328zM8.682 23.641l-1.343 1.328-1.119-1.105-0.048-0.397 1.167-1.149 1.343 1.323zM6.719 25.581l-0.269 0.267-0.068-0.605 0.337 0.338zM6.579 26.941l0.76-0.752 1.476 1.471c0.007 0.029 0.017 0.059 0.028 0.087h-2.172l-0.093-0.807zM11.26 26.189l0.76 0.751-0.092 0.795h-2.233l1.565-1.547zM12.145 25.847l-0.27-0.267 0.342-0.338-0.072 0.605zM12.547 22.373l-0.672-0.676 0.853-0.843-0.181 1.519zM11.256 21.093l-1.275-1.256h2.55l-1.275 1.256zM7.334 21.093l-1.274-1.256h2.55l-1.275 1.256zM11.679 29.584h-4.767c-0.015-0.002-0.026-0.013-0.028-0.028v-0l-0.113-0.954h5.053l-0.109 0.954c-0.002 0.016-0.015 0.028-0.032 0.028-0 0-0 0-0 0v0h-0.004zM15.367 15.733h-1.4c-0.012-0.001-0.026-0.002-0.040-0.002-0.114 0-0.217 0.043-0.296 0.113l0-0c-0.088 0.080-0.143 0.194-0.143 0.322 0 0.063 0.013 0.123 0.038 0.177l-0.001-0.003c0.051 0.112 0.145 0.197 0.26 0.235l0.003 0.001c0.058 0.019 0.12 0.026 0.18 0.020h0.499v2.337c-0.002 0.016-0.015 0.028-0.032 0.028-0 0-0 0-0 0v0h-10.285c-0 0-0 0-0 0-0.016 0-0.030-0.012-0.032-0.028l-0-0v-2.337h7.968c0.112-0.011 0.211-0.062 0.282-0.14l0-0c0.071-0.077 0.115-0.18 0.115-0.293 0-0.226-0.175-0.412-0.396-0.429l-0.002-0h-8.849c-0.013 0.001-0.028 0.002-0.043 0.002-0.202 0-0.376-0.119-0.456-0.291l-0.001-0.003c-0.027-0.059-0.042-0.127-0.042-0.199 0-0.144 0.063-0.274 0.162-0.363l0-0c0.088-0.080 0.206-0.129 0.335-0.129 0.016 0 0.032 0.001 0.047 0.002l-0.002-0h0.913c0.112-0.011 0.211-0.062 0.282-0.14l0-0c0.071-0.076 0.114-0.179 0.114-0.292s-0.043-0.215-0.114-0.292l0 0c-0.072-0.078-0.17-0.129-0.281-0.14l-0.002-0h-0.805c-0.047-0.237-0.075-0.51-0.075-0.789 0-0.368 0.047-0.725 0.136-1.065l-0.006 0.029c0.163-0.629 0.447-1.176 0.828-1.642l-0.006 0.008c0.282 0.867 1.006 2.051 2.816 2.993 1.701 0.878 3.954 1.327 6.693 1.327h1.609c0.013-0.001 0.029-0.002 0.045-0.002 0.13 0 0.248 0.049 0.337 0.129l-0-0c0.1 0.090 0.162 0.22 0.163 0.365v0c0 0.144-0.063 0.274-0.162 0.364l-0 0c-0.088 0.080-0.206 0.129-0.335 0.129-0.016 0-0.033-0.001-0.049-0.002l0.002 0h0.029zM18.579 27.171l-0.322 0.493 0.007 0.005 0.315-0.498zM22.045 27.337l0.589-0.013-0.015-0.682-0.673 0.114 0.099 0.581zM22.085 29.151l0.15 0.571 0.45-0.119-0.011-0.465-0.589 0.013zM17.536 29.237l0.133-0.575h-0.003l-0.129 0.575zM15.291 28.235l0.382-0.449-0.001-0.001-0.38 0.45zM14.48 26.393l0.589 0.003v-0.003h-0.589zM14.762 25.103l-0.529-0.26v0.001l0.529 0.26zM16.57 23.561l0.209 0.551h0.003l-0.211-0.551zM22.362 23.411l0.588 0.046 0.039-0.498-0.485-0.12-0.142 0.572zM22.218 25.259l-0.11 0.58 0.647 0.122 0.051-0.656-0.588-0.046zM20.646 24.503c-0.885 0-1.629 0.094-2.172 0.333-0.278 0.122-0.531 0.295-0.716 0.538-0.175 0.23-0.281 0.521-0.281 0.837 0 0.005 0 0.011 0 0.016v-0.001h1.179c0-0.069 0.017-0.107 0.042-0.14 0.031-0.040 0.1-0.104 0.251-0.171 0.317-0.139 0.863-0.233 1.697-0.233v-1.18zM17.477 26.226c0 0.607 0.272 1.107 0.78 1.439l0.644-0.988c-0.175-0.114-0.245-0.243-0.245-0.451h-1.18zM18.264 27.669c0.481 0.305 1.117 0.42 1.829 0.42v-1.18c-0.615 0-0.989-0.104-1.199-0.237l-0.631 0.997zM20.093 28.089c0.7 0 1.383-0.057 2.051-0.17l-0.197-1.163c-0.6 0.102-1.217 0.153-1.853 0.153v1.179zM21.456 27.351l0.040 1.813 1.179-0.027-0.040-1.813-1.179 0.027zM21.936 28.581c-0.675 0.177-1.418 0.269-2.234 0.269v1.179c0.903 0 1.749-0.101 2.533-0.307l-0.3-1.14zM19.702 28.849c-0.833 0-1.507-0.065-2.033-0.187l-0.265 1.149c0.641 0.147 1.411 0.217 2.297 0.217v-1.179zM17.666 28.663c-0.563-0.127-0.969-0.26-1.24-0.393l-0.518 1.060c0.389 0.19 0.896 0.348 1.5 0.483l0.258-1.151zM16.426 28.27c-0.287-0.139-0.535-0.3-0.759-0.488l0.005 0.005-0.763 0.899c0.295 0.25 0.629 0.464 0.998 0.644l0.517-1.059zM15.673 27.785c-0.401-0.339-0.607-0.781-0.603-1.389l-1.179-0.006c-0.005 0.927 0.331 1.713 1.021 2.296l0.761-0.901zM15.069 26.393c0-0.397 0.078-0.736 0.222-1.031l-1.059-0.519c-0.232 0.473-0.343 0.993-0.343 1.549h1.179zM15.291 25.363c0.269-0.545 0.742-0.969 1.488-1.252l-0.418-1.102c-0.973 0.369-1.705 0.975-2.128 1.833l1.058 0.521zM16.781 24.111c0.784-0.301 1.66-0.456 2.633-0.456v-1.179c-1.1 0-2.12 0.175-3.055 0.534l0.423 1.101zM19.414 23.655c0.993 0 1.927 0.111 2.807 0.328l0.283-1.144c-0.909-0.231-1.952-0.363-3.026-0.363-0.022 0-0.045 0-0.067 0h0.003v1.179zM21.774 23.365l-0.144 1.849 1.176 0.091 0.144-1.848-1.176-0.092zM22.327 24.68c-0.613-0.117-1.175-0.178-1.681-0.178v1.18c0.415 0 0.901 0.050 1.462 0.156l0.22-1.158zM28.081 25.621l-0.003 0.59 0.599 0.003-0.007-0.599-0.589 0.007zM27.827 24.856l-0.401 0.432 0.005 0.005 0.396-0.437zM26.359 24.913l0.409 0.425 0.004-0.004-0.413-0.421zM26.002 25.61l-0.582-0.095-0.112 0.681 0.691 0.004 0.003-0.59zM30.337 28.754l0.356 0.469 0.212-0.16 0.020-0.265-0.588-0.044zM29.065 29.226l-0.127-0.576-0.003 0.001 0.13 0.575zM24.643 29.065l-0.201 0.554 0.005 0.002 0.197-0.556zM23.635 28.529l-0.366 0.462 0.007 0.005 0.359-0.467zM22.962 27.683l-0.529 0.261 0.001 0.003 0.527-0.264zM23.653 24.107v0zM29.042 23.468l0.236-0.54-0.006-0.003-0.23 0.543zM30.395 24.712l-0.531 0.258 0.001 0.003 0.529-0.261zM30.625 25.743l0.588 0.043 0.001-0.021v-0.021h-0.589zM30.556 26.693l-0.003 0.589 0.551 0.003 0.040-0.549-0.588-0.043zM25.887 26.669l0.003-0.589-0.769-0.004 0.196 0.744 0.57-0.151zM26.555 27.493l-0.29 0.513 0.002 0.001 0.288-0.515zM30.136 27.291v-0.589h-0.118l-0.109 0.045 0.227 0.544zM30.447 27.291l0.588 0.044 0.047-0.633h-0.635v0.589zM28.67 25.615c-0.005-0.427-0.103-0.884-0.447-1.196l-0.793 0.873c-0.007-0.007 0.007 0.001 0.024 0.052 0.017 0.054 0.035 0.144 0.036 0.283l1.179-0.013zM28.228 24.424c-0.309-0.287-0.715-0.382-1.115-0.382v1.179c0.229 0 0.3 0.055 0.313 0.067l0.802-0.863zM27.113 24.042c-0.439 0-0.847 0.137-1.167 0.45l0.825 0.843c0.065-0.063 0.159-0.113 0.342-0.113v-1.18zM25.951 24.489c-0.276 0.266-0.468 0.62-0.529 1.016l-0.001 0.010 1.163 0.191c0.019-0.145 0.086-0.272 0.184-0.366l0-0-0.817-0.851zM25.999 26.2l2.079 0.011 0.007-1.179-2.079-0.011-0.007 1.179zM29.981 28.284c-0.129 0.098-0.445 0.235-1.043 0.367l0.253 1.151c0.623-0.137 1.155-0.315 1.502-0.579l-0.712-0.94zM28.935 28.651c-0.571 0.129-1.12 0.193-1.649 0.193v1.179c0.623 0 1.26-0.075 1.909-0.222l-0.26-1.15zM27.286 28.844c-0.556 0-1.013-0.027-1.378-0.076l-0.157 1.169c0.433 0.059 0.947 0.087 1.535 0.087v-1.18zM25.908 28.768c-0.401-0.055-0.762-0.146-1.106-0.271l0.037 0.012-0.393 1.112c0.375 0.138 0.815 0.248 1.27 0.312l0.034 0.004 0.157-1.169zM24.844 28.511c-0.325-0.114-0.606-0.266-0.858-0.455l0.008 0.006-0.717 0.936c0.336 0.257 0.727 0.463 1.165 0.621l0.402-1.108zM24.001 28.067c-0.214-0.174-0.387-0.39-0.507-0.636l-0.005-0.011-1.055 0.527c0.205 0.416 0.487 0.764 0.829 1.041l0.006 0.005 0.732-0.925zM23.49 27.421c-0.124-0.251-0.198-0.573-0.198-0.988h-1.179c0 0.553 0.099 1.063 0.32 1.511l1.057-0.523zM23.292 26.433c0-0.415 0.075-0.781 0.217-1.107l-1.082-0.469c-0.198 0.453-0.314 0.982-0.314 1.537 0 0.014 0 0.028 0 0.041l-0-0.002h1.179zM23.509 25.327c0.149-0.343 0.331-0.596 0.536-0.779l-0.785-0.881c-0.355 0.315-0.629 0.719-0.833 1.19l1.081 0.469zM24.045 24.547c0.633-0.565 1.6-0.893 2.993-0.893v-1.179c-1.563 0-2.853 0.367-3.778 1.191l0.785 0.88zM27.039 23.655c0.625 0 1.214 0.119 1.773 0.357l0.46-1.086c-0.653-0.284-1.413-0.449-2.212-0.449-0.008 0-0.015 0-0.023 0h0.001v1.179zM28.806 24.009c0.522 0.228 0.859 0.551 1.059 0.961l1.060-0.516c-0.337-0.695-0.902-1.201-1.647-1.527l-0.472 1.081zM29.866 24.973c0.111 0.223 0.17 0.476 0.17 0.769h1.179c0-0.459-0.094-0.893-0.291-1.292l-1.057 0.522zM30.037 25.7l-0.069 0.95 1.176 0.085 0.069-0.95-1.176-0.085zM30.559 26.103l-4.67-0.023-0.005 1.179 4.669 0.023 0.006-1.179zM25.317 26.82c0.138 0.523 0.475 0.919 0.948 1.187l0.58-1.027c-0.233-0.132-0.341-0.285-0.388-0.461l-1.14 0.3zM26.267 28.007c0.479 0.267 1.077 0.375 1.745 0.375v-1.179c-0.56 0-0.933-0.093-1.169-0.225l-0.576 1.029zM28.011 28.382c0.717 0 1.505-0.194 2.351-0.547l-0.453-1.088c-0.758 0.315-1.387 0.455-1.898 0.455v1.179zM30.136 27.881h0.311v-1.179h-0.311v1.179zM29.859 27.247l-0.109 1.463 1.176 0.088 0.109-1.463-1.176-0.088z"></path>
</symbol>
<symbol id="icon-menu-close" viewBox="0 0 32 32">
<path fill="#fcfcfc" style="fill: var(--color1, #fcfcfc)" d="M28.614 1.13l-12.614 12.614-12.614-12.614c-0.283-0.26-0.662-0.419-1.078-0.419-0.882 0-1.597 0.715-1.597 1.597 0 0.416 0.159 0.795 0.42 1.079l-0.001-0.001 12.608 12.614-12.611 12.611c-0.309 0.292-0.502 0.704-0.502 1.161 0 0.881 0.714 1.595 1.595 1.595 0.233 0 0.455-0.050 0.654-0.14l-0.010 0.004c0.202-0.089 0.375-0.211 0.518-0.361l0.001-0.001 12.618-12.611 12.614 12.614c0.283 0.26 0.662 0.419 1.078 0.419 0.882 0 1.597-0.715 1.597-1.597 0-0.416-0.159-0.795-0.42-1.079l0.001 0.001-12.614-12.614 12.614-12.618c0.289-0.289 0.468-0.688 0.468-1.13 0-0.882-0.715-1.596-1.596-1.596-0.44 0-0.839 0.178-1.128 0.467l0-0v0.003z"></path>
</symbol>
<symbol id="icon-menu-open" viewBox="0 0 32 32">
<path fill="none" stroke="#fff" style="stroke: var(--color6, #fff)" stroke-linejoin="miter" stroke-linecap="round" stroke-miterlimit="4" stroke-width="2" d="M6 10h20M6 16h20M6 22h20"></path>
</symbol>
<symbol id="icon-modal-close" viewBox="0 0 40 40">
<path d="M18.088 16l12.283-12.283c0.217-0.256 0.349-0.59 0.349-0.955 0-0.819-0.664-1.483-1.483-1.483-0.366 0-0.701 0.132-0.959 0.352l0.002-0.002-12.28 12.283-12.283-12.296c-0.273-0.295-0.662-0.479-1.094-0.479-0.822 0-1.488 0.666-1.488 1.488 0 0.431 0.184 0.82 0.477 1.092l0.001 0.001 12.296 12.283-12.293 12.28c-0.323 0.274-0.527 0.68-0.527 1.134 0 0.819 0.664 1.483 1.483 1.483 0.453 0 0.859-0.203 1.131-0.524l0.002-0.002 12.293-12.283 12.283 12.283c0.258 0.222 0.596 0.357 0.965 0.357 0.819 0 1.483-0.664 1.483-1.483 0-0.37-0.135-0.707-0.359-0.967l0.002 0.002-12.283-12.28z"></path>
</symbol>
<symbol id="icon-telegram-focus" viewBox="0 0 32 32">
<path fill="#f8d24e" style="fill: var(--color2, #f8d24e)" d="M32 16c0 8.837-7.163 16-16 16s-16-7.163-16-16c0-8.837 7.163-16 16-16s16 7.163 16 16z"></path>
<path fill="#fff" style="fill: var(--color6, #fff)" d="M12.866 18.375l-0.317 4.169c0.454 0 0.651-0.182 0.887-0.4l2.13-1.901 4.415 3.017c0.809 0.422 1.381 0.2 1.598-0.695l2.898-12.673c0.257-1.117-0.432-1.554-1.221-1.28l-17.032 6.086c-1.162 0.421-1.145 1.026-0.197 1.3l4.355 1.264 10.115-5.906c0.475-0.294 0.908-0.132 0.552 0.163l-8.182 6.856z"></path>
</symbol>
<symbol id="icon-telegram-hover" viewBox="0 0 32 32">
<path fill="#f8d24e" style="fill: var(--color2, #f8d24e)" d="M32 16c0 8.837-7.163 16-16 16s-16-7.163-16-16c0-8.837 7.163-16 16-16s16 7.163 16 16z"></path>
<path fill="#fff" style="fill: var(--color6, #fff)" d="M12.866 18.375l-0.318 4.17c0.455 0 0.652-0.183 0.888-0.401l2.13-1.9 4.414 3.017c0.81 0.42 1.38 0.199 1.599-0.695l2.898-12.673c0.257-1.118-0.432-1.554-1.221-1.28l-17.033 6.086c-1.162 0.42-1.144 1.026-0.197 1.3l4.354 1.264 10.115-5.907c0.476-0.294 0.909-0.131 0.553 0.163l-8.182 6.856z"></path>
</symbol>
<symbol id="icon-telegram-mob" viewBox="0 0 32 32">
<path fill="#f8d24e" style="fill: var(--color2, #f8d24e)" d="M31.258 16.43c0 8.571-6.946 15.519-15.515 15.519s-15.515-6.948-15.515-15.519c0-8.571 6.946-15.519 15.515-15.519s15.515 6.948 15.515 15.519z"></path>
<path fill="#84a178" style="fill: var(--color4, #84a178)" d="M12.705 18.735l-0.307 4.044c0.44 0 0.63-0.177 0.86-0.39l2.065-1.842 4.281 2.927c0.785 0.407 1.338 0.194 1.55-0.675l2.81-12.291c0.25-1.084-0.419-1.508-1.183-1.241l-16.517 5.902c-1.128 0.407-1.11 0.995-0.192 1.261l4.223 1.226 9.807-5.729c0.462-0.285 0.882-0.128 0.536 0.158l-7.934 6.65z"></path>
</symbol>
<symbol id="icon-telegram">
<svg width="22" height="16"><path d="m8.673 10.524-.338 4.43c.483 0 .692-.194.943-.426l2.264-2.02 4.69 3.207c.86.447 1.466.211 1.698-.739l3.08-13.464V1.51C21.283.324 20.55-.14 19.712.15L1.615 6.617C.38 7.065.399 7.707 1.405 8l4.627 1.343 10.747-6.276c.505-.313.965-.14.587.173l-8.693 7.285Z"/></svg>
</symbol>
<symbol id="icon-weight-in-yellow-circle" viewBox="0 0 32 32">
<path fill="#f8d24e" style="fill: var(--color2, #f8d24e)" d="M16 0c8.837 0 16 7.163 16 16s-7.163 16-16 16c-8.837 0-16-7.163-16-16s7.163-16 16-16z"></path>
<path fill="#131313" style="fill: var(--color3, #131313)" d="M14.688 4.874c-2.861 0.424-5.218 2.013-6.085 4.093-0.276 0.657-0.351 1.061-0.351 1.853 0.005 0.585 0.026 0.802 0.117 1.118 0.186 0.621 0.319 0.936 0.595 1.381l0.256 0.414-0.288 0.352c-2.271 2.826-2.521 6.8-0.627 9.931 0.707 1.175 1.862 2.329 2.989 3.002l0.335 0.196 9.175-0.077 0.218-0.119c0.761-0.429 1.835-1.387 2.436-2.163 0.87-1.13 1.486-2.5 1.737-3.993l0.007-0.053c0.085-0.533 0.085-2.112-0.005-2.614-0.271-1.547-0.851-2.872-1.766-4.047-0.175-0.223-0.314-0.409-0.314-0.424 0-0.010 0.096-0.171 0.207-0.352 0.26-0.414 0.495-0.947 0.622-1.412 0.143-0.518 0.143-1.811 0-2.329-0.511-1.837-2.042-3.369-4.207-4.212-0.607-0.238-1.644-0.492-2.314-0.574-0.622-0.072-2.159-0.058-2.739 0.031zM17.926 5.717c2.84 0.554 4.92 2.292 5.303 4.435 0.085 0.481 0.032 1.299-0.111 1.754-0.144 0.445-0.41 0.968-0.723 1.412-0.128 0.181-0.234 0.388-0.234 0.456s0.111 0.243 0.271 0.419c1.329 1.475 2.031 3.322 2.031 5.32-0.005 2.272-0.877 4.264-2.558 5.827-0.287 0.269-0.697 0.605-0.915 0.75l-0.399 0.269-8.792 0.036-0.34-0.218c-1.234-0.801-2.346-2.126-2.963-3.534-0.776-1.78-0.856-3.845-0.223-5.697 0.335-0.963 0.782-1.749 1.462-2.577 0.277-0.332 0.404-0.528 0.404-0.621 0-0.078-0.138-0.332-0.319-0.595-0.638-0.927-0.899-1.956-0.744-2.929 0.16-0.983 0.606-1.791 1.431-2.593 1.074-1.040 2.574-1.728 4.335-1.987 0.728-0.109 2.34-0.067 3.085 0.072z"></path>
<path fill="#131313" style="fill: var(--color3, #131313)" d="M14.927 6.628c-2.18 0.357-3.888 1.568-4.446 3.157-0.128 0.357-0.149 0.497-0.149 1.009s0.021 0.652 0.149 1.009c0.079 0.228 0.228 0.544 0.33 0.704 0.276 0.445 0.399 0.461 0.947 0.129 0.788-0.485 1.705-0.857 2.683-1.062l0.056-0.010c0.659-0.134 1.925-0.186 2.643-0.103 1.122 0.129 2.34 0.532 3.313 1.107 0.276 0.16 0.559 0.294 0.627 0.294 0.404 0 0.92-1.164 0.92-2.069 0-2.013-1.925-3.736-4.653-4.166-0.58-0.093-1.862-0.093-2.42 0zM17.56 7.456c0.915 0.196 1.755 0.57 2.388 1.061 0.851 0.657 1.308 1.573 1.233 2.458-0.026 0.352-0.159 0.828-0.239 0.88-0.022 0.010-0.32-0.114-0.66-0.279-0.667-0.327-1.443-0.6-2.254-0.779l-0.070-0.013c-0.495-0.103-0.702-0.119-1.808-0.114-1.091 0-1.319 0.016-1.792 0.114-0.819 0.176-1.458 0.394-2.245 0.766-0.792 0.378-0.75 0.383-0.893-0.083-0.186-0.605-0.069-1.407 0.292-2.013 0.192-0.321 0.718-0.854 1.101-1.117 0.729-0.502 1.367-0.73 2.739-0.979 0.282-0.051 1.846 0.021 2.207 0.099zM16.693 14.131c-0.149 0.187-0.149 0.363 0.005 0.513 0.101 0.099 0.202 0.124 0.57 0.15 0.745 0.054 1.428 0.274 2.027 0.623l-0.022-0.012c0.436 0.259 1.101 0.885 1.399 1.335 0.442 0.646 0.744 1.573 0.744 2.257 0 0.238 0.022 0.31 0.133 0.413 0.17 0.171 0.394 0.171 0.559 0 0.117-0.119 0.122-0.15 0.090-0.657-0.149-2.505-2.292-4.595-4.856-4.736l-0.532-0.031-0.116 0.145z"></path>
</symbol>
<symbol id="icon-weight" viewBox="0 0 32 32">
<path d="M14.178 0.547c-3.974 0.589-7.247 2.796-8.452 5.685-0.384 0.913-0.487 1.474-0.487 2.573 0.007 0.812 0.036 1.114 0.163 1.552 0.258 0.862 0.443 1.301 0.827 1.92l0.356 0.574-0.4 0.489c-3.154 3.924-3.501 9.444-0.871 13.793 0.982 1.631 2.586 3.235 4.151 4.169l0.466 0.273 12.743-0.108 0.302-0.165c1.057-0.596 2.548-1.926 3.383-3.004 1.208-1.569 2.064-3.472 2.413-5.546l0.010-0.074c0.118-0.74 0.118-2.933-0.007-3.63-0.377-2.148-1.182-3.988-2.452-5.62-0.244-0.309-0.436-0.568-0.436-0.589 0-0.014 0.133-0.237 0.288-0.489 0.362-0.575 0.687-1.316 0.864-1.962 0.199-0.719 0.199-2.516 0-3.235-0.709-2.551-2.836-4.679-5.843-5.851-0.843-0.331-2.284-0.683-3.214-0.797-0.864-0.101-2.999-0.080-3.804 0.043zM18.676 1.718c3.945 0.769 6.834 3.184 7.365 6.16 0.118 0.668 0.044 1.804-0.155 2.436-0.2 0.619-0.569 1.345-1.004 1.963-0.178 0.252-0.325 0.54-0.325 0.633s0.155 0.338 0.377 0.582c1.846 2.048 2.821 4.614 2.821 7.388-0.007 3.156-1.219 5.923-3.553 8.093-0.399 0.373-0.968 0.841-1.271 1.042l-0.554 0.373-12.211 0.051-0.473-0.302c-1.714-1.114-3.258-2.954-4.115-4.908-1.078-2.472-1.189-5.34-0.31-7.913 0.466-1.337 1.086-2.429 2.031-3.58 0.385-0.46 0.562-0.733 0.562-0.862 0-0.108-0.192-0.46-0.444-0.827-0.886-1.287-1.248-2.717-1.034-4.068 0.222-1.365 0.842-2.487 1.987-3.601 1.493-1.444 3.576-2.4 6.021-2.76 1.012-0.151 3.25-0.093 4.284 0.1z"></path>
<path d="M14.509 2.983c-3.028 0.496-5.4 2.178-6.175 4.385-0.178 0.495-0.207 0.69-0.207 1.401s0.029 0.907 0.207 1.402c0.11 0.316 0.317 0.755 0.458 0.978 0.384 0.618 0.554 0.64 1.316 0.18 1.094-0.674 2.368-1.19 3.727-1.474l0.078-0.014c0.916-0.187 2.674-0.259 3.671-0.144 1.558 0.18 3.25 0.74 4.602 1.538 0.384 0.223 0.776 0.411 0.871 0.411 0.562 0 1.278-1.618 1.278-2.876 0-2.796-2.674-5.189-6.463-5.786-0.805-0.129-2.587-0.129-3.362 0zM18.166 4.133c1.271 0.273 2.437 0.791 3.317 1.473 1.182 0.913 1.817 2.186 1.713 3.414-0.036 0.489-0.221 1.15-0.332 1.222-0.030 0.014-0.444-0.158-0.916-0.388-0.926-0.453-2.004-0.832-3.131-1.081l-0.097-0.018c-0.687-0.144-0.975-0.165-2.511-0.158-1.515 0-1.832 0.021-2.489 0.158-1.138 0.244-2.025 0.547-3.118 1.064-1.1 0.524-1.042 0.532-1.241-0.116-0.258-0.841-0.096-1.955 0.406-2.796 0.267-0.445 0.997-1.186 1.529-1.553 1.012-0.697 1.899-1.013 3.804-1.358 0.391-0.071 2.564 0.029 3.066 0.137zM16.963 13.404c-0.207 0.26-0.207 0.504 0.007 0.712 0.14 0.137 0.281 0.172 0.791 0.209 1.034 0.075 1.983 0.38 2.815 0.865l-0.031-0.017c0.606 0.359 1.529 1.228 1.943 1.854 0.613 0.898 1.034 2.185 1.034 3.133 0 0.331 0.030 0.431 0.185 0.575 0.236 0.237 0.547 0.237 0.776 0 0.163-0.165 0.169-0.208 0.125-0.913-0.207-3.478-3.184-6.382-6.744-6.576l-0.74-0.044-0.162 0.202z"></path>
</symbol>

<symbol id="icon-vector-12px" viewBox="0 0 32 32">
<path stroke-linejoin="round" stroke-linecap="round" stroke-miterlimit="4" stroke-width="5.3333" d="M10.667 5.333l13.196 10.667-13.196 10.667"></path>

<symbol id="icon-ice-cream-in-yellow-circle" viewBox="0 0 31 32">
<path fill="#f8d24e" style="fill: var(--color1, #f8d24e)" d="M15.686 0c8.663 0 15.686 7.023 15.686 15.686v0.008c0 8.663-7.023 15.686-15.686 15.686s-15.686-7.023-15.686-15.686v-0.008c0-8.663 7.023-15.686 15.686-15.686z"></path>
<path fill="#000" style="fill: var(--color2, #000)" d="M15.763 4.467c0.056 0.152 0.17 0.884 0.17 1.111 0 0.002 0 0.005 0 0.008 0 0.577-0.225 1.102-0.591 1.492l0.001-0.001c-0.317 0.34-0.634 0.529-1.394 0.836-0.846 0.345-1.196 0.553-1.592 0.945-0.402 0.402-0.638 0.841-0.723 1.357-0.095 0.562 0 0.959 0.288 1.186l0.146 0.113-0.232 0.147c-0.467 0.307-1.318 1.030-1.464 1.252-0.284 0.425-0.255 0.822 0.066 0.983l0.151 0.075-0.17 0.161c-0.255 0.241-0.307 0.407-0.27 0.841 0.024 0.289 0.014 0.445-0.051 0.681-0.080 0.307-0.080 0.312 0.023 0.53 0.104 0.213 0.397 0.482 0.662 0.595 0.127 0.056 0.132 0.075 0.161 0.51 0.014 0.251 0.038 1.049 0.056 1.777 0.014 0.728 0.048 1.394 0.075 1.474 0.024 0.085 0.114 0.198 0.194 0.255 0.274 0.189 0.463 0.393 0.585 0.629 0.137 0.27 0.289 0.931 0.747 3.218l0.322 1.606 0.198 0.189c0.378 0.373 1.101 0.543 2.292 0.543 1.195 0 1.909-0.166 2.287-0.539l0.203-0.193 0.292-1.489c0.647-3.256 0.704-3.435 1.21-3.837 0.156-0.128 0.307-0.284 0.335-0.355 0.033-0.080 0.067-0.7 0.090-1.635 0.019-0.831 0.048-1.654 0.067-1.829l0.028-0.316 0.307-0.232c0.387-0.297 0.538-0.567 0.538-0.983-0.004-0.491-0.326-1.030-0.912-1.512l-0.279-0.226 0.137-0.194c0.572-0.789 0.213-1.88-0.851-2.608l-0.321-0.222 0.118-0.123c0.525-0.562 0.61-2.24 0.17-3.407-0.264-0.695-0.87-1.451-1.611-2.008-0.363-0.274-1.365-0.879-1.454-0.879-0.019 0-0.019 0.033-0.004 0.075zM17.123 6.118c0.251 0.246 0.553 0.581 0.671 0.751 0.704 0.983 0.883 2.217 0.458 3.124-0.17 0.368-0.681 0.916-1.153 1.242-0.723 0.501-2.349 1.343-3.482 1.805-1.824 0.742-2.883 0.884-3.005 0.397-0.048-0.184 0.090-0.331 0.671-0.718 0.524-0.359 2.877-2.108 2.92-2.178 0.014-0.019-0.227 0.090-0.53 0.241-1.025 0.52-1.512 0.42-1.488-0.302 0.014-0.525 0.392-1.119 0.916-1.46 0.133-0.085 0.544-0.274 0.922-0.425 1.242-0.501 1.621-0.756 2.041-1.384 0.251-0.373 0.525-1.064 0.543-1.357 0.005-0.104 0.024-0.184 0.038-0.184s0.227 0.203 0.477 0.449zM18.413 11.486c0.345 0.193 0.704 0.525 0.86 0.784 0.275 0.467 0.133 0.936-0.458 1.531-0.642 0.653-1.739 1.276-2.944 1.673-1.111 0.364-2.174 0.534-3.696 0.586l-0.945 0.033 0.615 0.038c0.794 0.052 2.329 0.005 2.925-0.090 1.583-0.251 2.93-0.752 3.894-1.441 0.218-0.156 0.444-0.284 0.506-0.284 0.156 0 0.836 0.653 0.973 0.926 0.076 0.156 0.095 0.27 0.080 0.42-0.071 0.629-0.836 0.964-2.684 1.186-2.259 0.27-5.212 0.005-6.474-0.576-0.596-0.274-0.695-0.43-0.543-0.846 0.047-0.132 0.056-0.289 0.038-0.511-0.024-0.293-0.019-0.331 0.085-0.439 0.237-0.255 0.634-0.402 2.089-0.771 0.51-0.132 1.205-0.34 1.535-0.463 0.803-0.293 2.311-1.054 3.010-1.522 0.657-0.435 0.752-0.454 1.134-0.236zM12.137 17.27c0.993 0.289 1.872 0.373 3.507 0.34 1.229-0.023 1.985-0.099 3.076-0.293 0.223-0.038 0.416-0.071 0.44-0.071 0.052 0 0.038 1.815-0.019 2.292-0.061 0.506-0.199 0.898-0.345 0.993-0.151 0.099-0.907 0.203-1.919 0.26-2.074 0.113-4.206 0-4.867-0.265-0.359-0.146-0.397-0.336-0.402-2.089 0-1.167 0.009-1.328 0.071-1.304 0.038 0.014 0.245 0.075 0.458 0.137zM13.257 21.287c0.341 0.043 0.709 0.085 0.822 0.099l0.204 0.024-0.18 0.198c-0.232 0.25-0.586 0.751-0.713 1.006-0.146 0.293-0.194 0.312-0.411 0.194l-0.184-0.104-0.104-0.642c-0.055-0.357-0.101-0.609-0.152-0.859l0.020 0.117c-0.043-0.122-0.085-0.122 0.699-0.033zM18.295 21.235c0 0.009-0.024 0.132-0.048 0.27-0.028 0.141-0.146 0.912-0.264 1.715-0.241 1.678-0.402 2.466-0.548 2.731-0.203 0.355-0.69 0.562-1.479 0.629-0.307 0.024-1.234-0.038-1.286-0.085-0.038-0.042 0.775-1.049 0.903-1.115 0.118-0.067 0.151-0.056 0.552 0.151 0.468 0.247 0.705 0.284 0.705 0.128s-0.123-0.307-0.425-0.514c-0.279-0.199-0.378-0.312-0.378-0.445 0-0.038 0.137-0.25 0.302-0.472s0.406-0.577 0.529-0.789l0.232-0.383 0.212 0.029c0.43 0.061 0.543 0.056 0.53-0.038-0.009-0.048-0.090-0.184-0.18-0.298-0.090-0.118-0.161-0.237-0.161-0.26 0-0.090 0.439-0.917 0.582-1.092 0.123-0.151 0.222-0.227 0.222-0.161zM15.342 21.613c0.236 0.156 1.124 0.926 1.181 1.021 0.024 0.043-0.888 1.47-1.068 1.673-0.019 0.024-0.118-0.023-0.217-0.099-0.22-0.166-0.488-0.352-0.762-0.531l-0.060-0.037-0.638-0.42 0.383-0.648c0.68-1.139 0.666-1.12 0.813-1.12 0.075 0 0.241 0.071 0.369 0.161zM17.133 21.783c-0.166 0.203-0.302 0.331-0.359 0.331-0.123 0-0.322-0.109-0.657-0.355l-0.279-0.203 0.558-0.033c0.246-0.009 0.47-0.024 0.692-0.046l-0.046 0.004c0.378-0.061 0.378-0.056 0.090 0.303zM13.56 24.056c0.435 0.17 1.172 0.572 1.385 0.752 0.151 0.122 0.151 0.132 0.090 0.283-0.1 0.199-0.197 0.364-0.304 0.523l0.011-0.017c-0.091 0.135-0.196 0.306-0.295 0.482l-0.022 0.043c-0.151 0.293-0.198 0.317-0.51 0.232-0.336-0.1-0.514-0.27-0.609-0.577-0.128-0.43-0.331-1.644-0.307-1.833 0.009-0.071 0.208-0.028 0.562 0.114z"></path>
</symbol>
<symbol id="icon-modal-close-btn-mob" viewBox="0 0 32 32">
<path d="M17.254 16l7.368-7.368c0.127-0.153 0.204-0.351 0.204-0.568 0-0.492-0.398-0.89-0.89-0.89-0.216 0-0.414 0.077-0.568 0.205l0.001-0.001-7.37 7.368-7.368-7.378c-0.162-0.161-0.385-0.261-0.631-0.261-0.493 0-0.893 0.4-0.893 0.893 0 0.247 0.1 0.47 0.262 0.632l7.378 7.368-7.38 7.368c-0.194 0.164-0.317 0.408-0.317 0.681 0 0.492 0.398 0.89 0.89 0.89 0.273 0 0.517-0.123 0.68-0.316l0.001-0.001 7.38-7.368 7.368 7.368c0.153 0.127 0.351 0.203 0.566 0.203 0.492 0 0.89-0.398 0.89-0.89 0-0.216-0.077-0.415-0.206-0.569l0.001 0.001-7.368-7.368z"></path>
</symbol>
</defs>
</svg>
